<svg width="83" height="29" viewBox="0 0 83 29" fill="none" xmlns="http://www.w3.org/2000/svg">
<path d="M16.024 19.66C16.888 19.492 17.764 19.204 18.652 19.264C18.916 19.276 19.168 19.396 19.324 19.612C19.648 20.056 19.444 20.632 18.94 20.812C17.728 21.244 16.444 21.616 15.196 21.916C15.076 22.372 14.98 22.864 15.076 23.332C15.352 24.676 19.264 22.024 19.9 21.748C20.164 21.628 20.44 21.628 20.716 21.736C21.244 21.94 21.448 22.516 21.244 23.032C20.5 24.928 13.876 26.608 13.576 23.476C13.528 22.96 13.576 22.444 13.576 21.928C13.18 21.628 12.976 21.196 13.372 20.788C13.66 20.488 14.104 20.416 14.284 20.032C14.536 19.504 15.016 17.968 15.796 18.316C16.42 18.592 16.144 19.18 16.024 19.66ZM18.016 17.596C17.092 17.536 16.204 17.596 15.292 17.8C15.1 17.848 14.908 17.848 14.716 17.848C13.9 17.848 14.032 16.96 14.848 16.468C16.144 15.688 17.68 15.52 19.168 15.46C21.268 15.364 21.904 17.344 20.512 17.668C19.816 17.836 18.688 17.632 18.016 17.596ZM24.6482 22.648C24.3842 23.152 23.7242 24.688 23.1602 24.796C22.7282 24.868 22.3442 24.616 22.3202 24.208C22.2842 23.548 23.1002 22.18 23.4602 21.568C20.5802 18.436 22.6922 15.232 23.9042 17.836C24.1802 18.448 24.5042 19.048 24.7922 19.648C25.6922 18.52 26.5202 17.332 27.6362 16.36C28.6082 15.52 29.0162 16.432 28.7282 16.792C28.6562 16.876 28.5722 16.96 28.4882 17.032C27.3602 18.136 26.5322 19.528 25.6922 20.836C26.1962 21.436 26.7602 22 27.3962 22.456C27.8042 22.756 29.1962 23.512 29.3642 23.872C29.6042 24.364 29.0882 24.808 28.5602 24.724C27.1082 24.472 25.7642 23.5 24.6482 22.648ZM31.1853 22.444C31.1493 23.056 31.0173 23.848 31.2933 24.412C31.3893 24.616 31.4013 24.856 31.2333 25.024C30.8013 25.48 30.2493 24.904 30.1293 24.472C29.8053 23.308 29.9373 20.932 30.1893 19.744C30.2493 19.468 30.4773 18.7 30.6333 18.484C30.9933 17.992 31.6773 18.232 31.6413 18.844C31.6053 19.444 31.4853 20.092 31.3893 20.692C32.0373 20.632 32.5533 20.488 32.9733 20.404C34.6053 20.08 35.5413 17.74 32.9973 17.716C31.9653 17.704 30.7293 18.172 30.4293 18.316C30.0093 18.52 29.5653 18.256 29.5173 17.8C29.4093 16.792 30.9933 16.252 32.5773 16.096C35.9493 15.748 38.3973 18.688 35.3613 21.244C34.4733 21.976 32.2053 22.444 31.1853 22.444ZM38.7611 23.2C39.5891 23.044 43.1531 21.7 43.3091 22.9C43.3571 23.272 43.2011 23.476 42.8891 23.644C41.8931 24.184 39.9371 24.328 38.7371 24.688C38.5571 24.736 38.3891 24.796 38.2091 24.832C37.1651 25.048 36.3611 24.316 36.4691 23.26C36.6011 21.976 38.6531 16.504 39.8771 16.156C40.4171 16 40.8491 16.444 40.8371 16.972C40.8251 17.428 39.0491 22.408 38.7611 23.2ZM44.3174 19.852C44.7014 18.76 45.3254 17.692 46.1414 17.464C46.7534 17.296 47.2334 17.704 47.2094 18.328C47.1734 19.192 46.8734 18.892 46.6454 19.276C46.2254 19.996 45.7454 21.796 46.1054 22.576C46.2134 22.804 46.4054 22.876 46.6454 22.828C47.7734 22.612 48.6614 20.716 48.7214 19.672C48.7934 18.232 48.1694 17.74 47.1494 16.912C46.8614 16.672 46.6574 16.36 46.7894 15.976C47.0174 15.292 47.7374 15.34 48.4454 15.688C50.4134 16.672 50.8934 19.276 50.1374 21.148C49.5494 22.612 48.3014 24.532 46.5854 24.7C43.7534 24.964 43.6454 21.7 44.3174 19.852ZM54.4667 21.712C54.9107 22.264 56.5907 23.236 57.2987 23.032C57.6107 22.936 57.9107 23.02 58.0547 23.332C58.1867 23.62 58.0907 23.956 57.8387 24.136C56.3747 25.228 53.8787 23.488 52.6787 22.672C52.6427 23.116 52.5347 23.728 52.7387 24.148C52.8947 24.46 52.9907 24.832 52.6307 25.06C52.0667 25.42 51.6107 24.736 51.4427 24.28C50.7827 22.48 51.4667 18.868 52.6907 17.356L52.0307 17.608C51.1187 17.956 50.7227 16.948 51.6587 16.144C52.6067 15.328 55.1387 15.04 56.3627 15.1C57.9587 15.184 60.3467 15.928 59.6147 18.028C59.4227 18.58 59.0507 19.048 58.6067 19.432C57.4067 20.464 55.9667 21.208 54.4667 21.712ZM53.3267 19.996C54.1667 19.876 55.6427 19.288 56.6027 18.628C57.9347 17.728 57.6827 17.068 56.2547 16.948C55.2827 16.864 54.0467 17.02 53.5547 17.14C54.3107 17.62 53.4707 19.252 53.3267 19.996ZM62.3365 19.66C63.2005 19.492 64.0765 19.204 64.9645 19.264C65.2285 19.276 65.4805 19.396 65.6365 19.612C65.9605 20.056 65.7565 20.632 65.2525 20.812C64.0405 21.244 62.7565 21.616 61.5085 21.916C61.3885 22.372 61.2925 22.864 61.3885 23.332C61.6645 24.676 65.5765 22.024 66.2125 21.748C66.4765 21.628 66.7525 21.628 67.0285 21.736C67.5565 21.94 67.7605 22.516 67.5565 23.032C66.8125 24.928 60.1885 26.608 59.8885 23.476C59.8405 22.96 59.8885 22.444 59.8885 21.928C59.4925 21.628 59.2885 21.196 59.6845 20.788C59.9725 20.488 60.4165 20.416 60.5965 20.032C60.8485 19.504 61.3285 17.968 62.1085 18.316C62.7325 18.592 62.4565 19.18 62.3365 19.66ZM64.3285 17.596C63.4045 17.536 62.5165 17.596 61.6045 17.8C61.4125 17.848 61.2205 17.848 61.0285 17.848C60.2125 17.848 60.3445 16.96 61.1605 16.468C62.4565 15.688 63.9925 15.52 65.4805 15.46C67.5805 15.364 68.2165 17.344 66.8245 17.668C66.1285 17.836 65.0005 17.632 64.3285 17.596ZM73.9127 22.024C73.0727 22.024 72.2807 22.072 71.4407 22.144C70.7207 22.204 70.4447 24.46 69.5207 24.724C68.4167 25.036 68.2727 23.884 68.4887 23.116C68.5487 22.9 68.6567 22.684 68.7407 22.468C68.3687 22.18 68.0327 21.784 68.5247 21.388C68.9687 21.028 69.4247 21.136 69.7607 20.632C70.7207 19.204 72.9527 16.192 74.8847 16.084C77.6447 15.928 76.0367 21.124 75.7967 22.552C75.7007 23.104 75.5567 24.016 75.8687 24.496C76.0247 24.736 76.0007 25.012 75.8327 25.24C75.6647 25.468 75.3527 25.552 75.0887 25.48C74.2487 25.252 74.0447 24.34 73.9847 23.584C73.9487 23.068 73.9367 22.54 73.9127 22.024ZM72.2327 20.704L73.9967 20.776L74.1047 19.816C74.4287 18.076 74.2127 18.052 73.8287 18.424C73.2047 19.024 72.5087 19.96 72.2327 20.704Z" fill="url(#paint0_linear_8012_128)"/>
<g clip-path="url(#clip0_8012_128)">
<path d="M15.8734 14.165L16.8443 13.3605L16.3003 8.37475C16.3003 8.37475 16.9814 7.96176 17.9305 7.27181C18.5162 6.82247 18.937 6.19696 19.1234 5.4987L19.1223 5.50204L19.0779 5.43645C18.3647 5.35002 17.6318 5.50607 16.9998 5.87895L16.9916 5.88396C15.9985 6.50807 15.3614 6.9869 15.3614 6.9869L10.9361 4.62759L9.82814 5.22954L12.2923 7.1815L13.3636 8.29068C12.4233 8.86052 11.5722 9.56626 10.8405 10.3827L10.893 10.3283L9.81369 9.6254L9.13361 10.0855L10.2944 11.1493C10.2142 11.285 10.1535 11.4023 10.0985 11.5215L10.1066 11.505L9.99995 11.5771C10.0252 11.5765 10.0508 11.5754 10.0767 11.574L10.0455 11.6445L10.1522 11.5723C10.2646 11.5673 10.396 11.5545 10.5273 11.535L10.5522 11.5303L11.1078 13.0036L11.7879 12.5434L11.5369 11.2801C12.3053 11.0035 13.1226 10.5897 13.8984 10.0649C14.0591 9.95621 14.2159 9.84414 14.369 9.72866L14.3478 9.74458L14.9791 11.152L15.8734 14.165Z" fill="url(#paint1_linear_8012_128)"/>
</g>
<path d="M8.93604 13C1.96073 18.1079 2.51558 26.4949 11.1426 21.4343" stroke="url(#paint2_linear_8012_128)" stroke-width="1.5" stroke-linecap="round"/>
<path d="M22.9085 15C29.8528 9.58598 27.1074 2.9313 21 5.61405" stroke="url(#paint3_linear_8012_128)" stroke-width="1.5" stroke-linecap="round"/>
<defs>
<linearGradient id="paint0_linear_8012_128" x1="4" y1="22" x2="77" y2="22" gradientUnits="userSpaceOnUse">
<stop stop-color="#0EA5E9"/>
<stop offset="1" stop-color="#0872BA"/>
</linearGradient>
<linearGradient id="paint1_linear_8012_128" x1="11.5399" y1="4.07146" x2="17.5854" y2="13.0072" gradientUnits="userSpaceOnUse">
<stop stop-color="#0872BA"/>
<stop offset="1" stop-color="#0EA5E9"/>
</linearGradient>
<linearGradient id="paint2_linear_8012_128" x1="7.69003" y1="13" x2="7.69003" y2="25.0401" gradientUnits="userSpaceOnUse">
<stop stop-color="#0872BA"/>
<stop offset="1" stop-color="#0EA5E9"/>
</linearGradient>
<linearGradient id="paint3_linear_8012_128" x1="24.5135" y1="15.8948" x2="24.5135" y2="3.13318" gradientUnits="userSpaceOnUse">
<stop stop-color="#0872BA"/>
<stop offset="1" stop-color="#0EA5E9"/>
</linearGradient>
<clipPath id="clip0_8012_128">
<rect width="14.2508" height="13.6807" fill="white" transform="translate(16.3311) rotate(55.9197)"/>
</clipPath>
</defs>
</svg>
