<svg width="134" height="34" viewBox="0 0 134 34" fill="none" xmlns="http://www.w3.org/2000/svg">
<path d="M9.42477 11.1C10.8648 10.82 12.3248 10.34 13.8048 10.44C14.2448 10.46 14.6648 10.66 14.9248 11.02C15.4648 11.76 15.1248 12.72 14.2848 13.02C12.2648 13.74 10.1248 14.36 8.04477 14.86C7.84477 15.62 7.68477 16.44 7.84477 17.22C8.30477 19.46 14.8248 15.04 15.8848 14.58C16.3248 14.38 16.7848 14.38 17.2448 14.56C18.1248 14.9 18.4648 15.86 18.1248 16.72C16.8848 19.88 5.84477 22.68 5.34477 17.46C5.26477 16.6 5.34477 15.74 5.34477 14.88C4.68477 14.38 4.34477 13.66 5.00477 12.98C5.48477 12.48 6.22477 12.36 6.52477 11.72C6.94477 10.84 7.74477 8.28 9.04477 8.86C10.0848 9.32 9.62477 10.3 9.42477 11.1ZM12.7448 7.66C11.2048 7.56 9.72477 7.66 8.20477 8C7.88477 8.08 7.56477 8.08 7.24477 8.08C5.88477 8.08 6.10477 6.6 7.46477 5.78C9.62477 4.48 12.1848 4.2 14.6648 4.1C18.1648 3.94 19.2248 7.24 16.9048 7.78C15.7448 8.06 13.8648 7.72 12.7448 7.66ZM23.7984 16.08C23.3584 16.92 22.2584 19.48 21.3184 19.66C20.5984 19.78 19.9584 19.36 19.9184 18.68C19.8584 17.58 21.2184 15.3 21.8184 14.28C17.0184 9.06 20.5384 3.72 22.5584 8.06C23.0184 9.08 23.5584 10.08 24.0384 11.08C25.5384 9.2 26.9184 7.22 28.7784 5.6C30.3984 4.2 31.0784 5.72 30.5984 6.32C30.4784 6.46 30.3384 6.6 30.1984 6.72C28.3184 8.56 26.9384 10.88 25.5384 13.06C26.3784 14.06 27.3184 15 28.3784 15.76C29.0584 16.26 31.3784 17.52 31.6584 18.12C32.0584 18.94 31.1984 19.68 30.3184 19.54C27.8984 19.12 25.6584 17.5 23.7984 16.08ZM34.6937 15.74C34.6337 16.76 34.4137 18.08 34.8737 19.02C35.0337 19.36 35.0537 19.76 34.7737 20.04C34.0537 20.8 33.1337 19.84 32.9337 19.12C32.3937 17.18 32.6137 13.22 33.0337 11.24C33.1337 10.78 33.5137 9.5 33.7737 9.14C34.3737 8.32 35.5137 8.72 35.4537 9.74C35.3937 10.74 35.1937 11.82 35.0337 12.82C36.1137 12.72 36.9737 12.48 37.6737 12.34C40.3937 11.8 41.9537 7.9 37.7137 7.86C35.9937 7.84 33.9337 8.62 33.4337 8.86C32.7337 9.2 31.9937 8.76 31.9137 8C31.7337 6.32 34.3737 5.42 37.0137 5.16C42.6337 4.58 46.7137 9.48 41.6537 13.74C40.1737 14.96 36.3937 15.74 34.6937 15.74ZM47.3199 17C48.6999 16.74 54.6399 14.5 54.8999 16.5C54.9799 17.12 54.7199 17.46 54.1999 17.74C52.5399 18.64 49.2799 18.88 47.2799 19.48C46.9799 19.56 46.6999 19.66 46.3999 19.72C44.6599 20.08 43.3199 18.86 43.4999 17.1C43.7199 14.96 47.1399 5.84 49.1799 5.26C50.0799 5 50.7999 5.74 50.7799 6.62C50.7599 7.38 47.7999 15.68 47.3199 17ZM56.5804 11.42C57.2204 9.6 58.2604 7.82 59.6204 7.44C60.6404 7.16 61.4404 7.84 61.4004 8.88C61.3404 10.32 60.8404 9.82 60.4604 10.46C59.7604 11.66 58.9604 14.66 59.5604 15.96C59.7404 16.34 60.0604 16.46 60.4604 16.38C62.3404 16.02 63.8204 12.86 63.9204 11.12C64.0404 8.72 63.0004 7.9 61.3004 6.52C60.8204 6.12 60.4804 5.6 60.7004 4.96C61.0804 3.82 62.2804 3.9 63.4604 4.48C66.7404 6.12 67.5404 10.46 66.2804 13.58C65.3004 16.02 63.2204 19.22 60.3604 19.5C55.6404 19.94 55.4604 14.5 56.5804 11.42ZM73.4959 14.52C74.2359 15.44 77.0359 17.06 78.2159 16.72C78.7359 16.56 79.2359 16.7 79.4759 17.22C79.6959 17.7 79.5359 18.26 79.1159 18.56C76.6759 20.38 72.5159 17.48 70.5159 16.12C70.4559 16.86 70.2759 17.88 70.6159 18.58C70.8759 19.1 71.0359 19.72 70.4359 20.1C69.4959 20.7 68.7359 19.56 68.4559 18.8C67.3559 15.8 68.4959 9.78 70.5359 7.26L69.4359 7.68C67.9159 8.26 67.2559 6.58 68.8159 5.24C70.3959 3.88 74.6159 3.4 76.6559 3.5C79.3159 3.64 83.2959 4.88 82.0759 8.38C81.7559 9.3 81.1359 10.08 80.3959 10.72C78.3959 12.44 75.9959 13.68 73.4959 14.52ZM71.5959 11.66C72.9959 11.46 75.4559 10.48 77.0559 9.38C79.2759 7.88 78.8559 6.78 76.4759 6.58C74.8559 6.44 72.7959 6.7 71.9759 6.9C73.2359 7.7 71.8359 10.42 71.5959 11.66ZM86.6123 11.1C88.0523 10.82 89.5123 10.34 90.9923 10.44C91.4323 10.46 91.8523 10.66 92.1123 11.02C92.6523 11.76 92.3123 12.72 91.4723 13.02C89.4523 13.74 87.3123 14.36 85.2323 14.86C85.0323 15.62 84.8723 16.44 85.0323 17.22C85.4923 19.46 92.0123 15.04 93.0723 14.58C93.5123 14.38 93.9723 14.38 94.4323 14.56C95.3123 14.9 95.6523 15.86 95.3123 16.72C94.0723 19.88 83.0323 22.68 82.5323 17.46C82.4523 16.6 82.5323 15.74 82.5323 14.88C81.8723 14.38 81.5323 13.66 82.1923 12.98C82.6723 12.48 83.4123 12.36 83.7123 11.72C84.1323 10.84 84.9323 8.28 86.2323 8.86C87.2723 9.32 86.8123 10.3 86.6123 11.1ZM89.9323 7.66C88.3923 7.56 86.9123 7.66 85.3923 8C85.0723 8.08 84.7523 8.08 84.4323 8.08C83.0723 8.08 83.2923 6.6 84.6523 5.78C86.8123 4.48 89.3723 4.2 91.8523 4.1C95.3523 3.94 96.4123 7.24 94.0923 7.78C92.9323 8.06 91.0523 7.72 89.9323 7.66ZM105.906 15.04C104.506 15.04 103.186 15.12 101.786 15.24C100.586 15.34 100.126 19.1 98.5859 19.54C96.7459 20.06 96.5059 18.14 96.8659 16.86C96.9659 16.5 97.1459 16.14 97.2859 15.78C96.6659 15.3 96.1059 14.64 96.9259 13.98C97.6659 13.38 98.4259 13.56 98.9859 12.72C100.586 10.34 104.306 5.32 107.526 5.14C112.126 4.88 109.446 13.54 109.046 15.92C108.886 16.84 108.646 18.36 109.166 19.16C109.426 19.56 109.386 20.02 109.106 20.4C108.826 20.78 108.306 20.92 107.866 20.8C106.466 20.42 106.126 18.9 106.026 17.64C105.966 16.78 105.946 15.9 105.906 15.04ZM103.106 12.84L106.046 12.96L106.226 11.36C106.766 8.46 106.406 8.42 105.766 9.04C104.726 10.04 103.566 11.6 103.106 12.84Z" fill="#0B1220"/>
<g clip-path="url(#clip0_8014_161)">
<path d="M16.1401 24.6646C15.8486 24.6587 15.7498 24.6862 15.7934 24.7267C15.821 24.7267 15.8542 24.7274 15.8818 24.7282C16.2996 24.7397 16.6791 24.7188 17.0585 24.6988C16.7506 24.6874 16.4483 24.6711 16.1401 24.6646ZM25.476 24.4586C25.3497 24.4393 25.1462 24.4254 25.0142 24.4543C24.8215 24.4955 24.5848 24.4962 24.2877 24.489C24.0182 24.4823 23.7983 24.495 23.7927 24.5444C23.7871 24.5831 23.6491 24.5886 23.44 24.5715L23.4292 24.5737C23.3085 24.5478 23.1321 24.5367 22.9342 24.5294C22.8734 24.5318 22.7691 24.5325 22.7527 24.5374C22.5376 24.6286 22.2081 24.5848 21.9166 24.5515C21.6915 24.5256 21.6359 24.549 21.5372 24.57C21.4104 24.5967 21.46 24.62 21.6467 24.6258C21.999 24.6364 22.2685 24.6471 22.1581 24.7157C22.1309 24.7317 22.3341 24.7295 22.444 24.7302H22.4496C22.5272 24.6705 22.7403 24.6321 23.1561 24.629H23.2421L23.3213 24.6277C23.6947 24.6278 23.7599 24.7073 24.1773 24.7037C23.9078 24.7237 23.7371 24.7503 23.7647 24.7923C23.7755 24.8141 23.9182 24.8143 24.0334 24.8159C24.3305 24.8217 24.4516 24.7941 24.584 24.7603C24.7051 24.7297 24.9199 24.7064 25.1234 24.675C24.7877 24.6784 24.4521 24.6684 24.1222 24.6453L24.1054 24.644L24.1222 24.6438C24.1248 24.6298 24.1191 24.6157 24.1054 24.6026C24.0838 24.5816 24.1062 24.5638 24.2381 24.5525C24.3541 24.5424 24.4759 24.5468 24.5844 24.565C24.9418 24.6209 25.4648 24.6421 25.8551 24.6916C25.9323 24.7012 26.0698 24.7005 26.1798 24.7037C26.2949 24.7135 26.3777 24.7135 26.3777 24.6892C26.3173 24.6852 26.2621 24.6803 26.2018 24.677C26.0974 24.6714 25.9547 24.6729 25.9215 24.6535C25.8723 24.6261 26.1298 24.6366 26.1798 24.6126C25.6244 24.6228 25.7015 24.5525 25.7623 24.5219C25.8559 24.4726 25.586 24.4755 25.476 24.4586ZM110.014 22.0598C109.057 22.0013 108.072 21.9976 107.043 22.0068C105.883 22.0167 104.717 22.0059 103.551 22.0037L103.529 22.0017L99.7056 22.0145L99.7116 22.0154C99.7806 22.0191 99.85 22.0221 99.9195 22.0243C99.8483 22.024 99.778 22.0215 99.7116 22.0154C98.187 22.0186 96.6624 21.9819 95.1374 22.0118L95.0902 22.0117C95.063 22.0108 95.0294 22.0117 95.0022 22.0126C93.2861 22.0126 91.5747 22.0296 89.8642 22.0418C87.4324 22.0584 85.0061 22.0744 82.575 22.0926C81.7777 22.0987 80.9861 22.1111 80.1892 22.1205C77.968 22.1058 75.7525 22.1354 73.5366 22.1491L73.5414 22.1523L73.5254 22.1507L73.5366 22.1491C71.9688 22.1669 70.395 22.1841 68.8272 22.202L68.826 22.2029C68.1606 22.2476 67.4625 22.2266 66.7752 22.2261C66.6324 22.2261 66.5333 22.2373 66.4121 22.2436C66.2306 22.254 66.0487 22.2629 65.8507 22.2499C65.415 22.222 64.9681 22.2298 64.5413 22.2727C64.3985 22.2872 64.2666 22.2905 64.1402 22.2816C63.4197 22.2303 62.726 22.2832 62.0438 22.2967C61.6668 22.3045 61.2841 22.3068 60.9015 22.3145C60.8991 22.3143 60.8963 22.3143 60.8943 22.314C60.3277 22.3106 59.7667 22.3185 59.2165 22.34L59.2189 22.3409C58.422 22.3896 57.5708 22.3803 56.7355 22.3864C55.8498 22.3924 55.0022 22.4285 54.1329 22.4411H54.1277L54.0469 22.4351C53.6431 22.4096 53.2281 22.4304 52.8566 22.447C52.5771 22.4588 52.3416 22.4636 52.0737 22.4548L52.0701 22.4545H52.0689C51.7833 22.4391 51.494 22.4349 51.206 22.4421L51.2044 22.4425C51.1996 22.4415 51.1936 22.4406 51.19 22.4396C50.7226 22.4394 50.2548 22.4369 49.815 22.4665L49.8094 22.4674L49.8078 22.4682C49.2964 22.451 48.7742 22.4588 48.2688 22.4593C47.1796 22.4606 46.0848 22.4673 45.0064 22.4968L44.9745 22.4983L45.0064 22.4952C43.7853 22.4882 42.5862 22.5175 41.3815 22.5372C41.2047 22.5577 41.1899 22.5682 41.2383 22.5752C40.6637 22.5648 40.1 22.5771 39.5322 22.5919C39.3618 22.5968 39.1967 22.6048 39.0208 22.5958H39.0096C38.8888 22.5958 38.7621 22.5942 38.6413 22.5933C38.2051 22.6017 38.0859 22.6363 38.2835 22.6973C38.3106 22.7053 38.3342 22.7141 38.3694 22.7212C38.3274 22.7182 38.2871 22.715 38.2503 22.7111C38.1459 22.6957 38.0355 22.6819 37.8872 22.6785C37.818 22.68 37.7489 22.6819 37.6817 22.6844C37.6001 22.6775 37.5098 22.673 37.4178 22.6692C37.4267 22.6649 37.4348 22.6605 37.4422 22.6558C37.2827 22.6177 37.0515 22.6087 36.7709 22.6167C35.924 22.6179 35.0823 22.629 34.2462 22.6503L34.2402 22.6511C34.4378 22.6997 34.7568 22.6773 34.9991 22.6709C35.6557 22.6539 35.6953 22.6492 35.8624 22.7307C35.7712 22.7363 35.6849 22.7436 35.5769 22.7413C34.7848 22.7233 34.0251 22.7591 33.255 22.7759L33.2094 22.7747C33.193 22.7499 33.3122 22.7322 33.4805 22.7154C33.6073 22.7025 33.7228 22.6798 33.69 22.6549C33.668 22.6395 33.5193 22.6493 33.4313 22.646C32.9915 22.6748 32.4861 22.6327 32.0627 22.6751C31.0575 22.6617 30.0579 22.6816 29.0578 22.6917C29.6024 22.7105 30.1418 22.7608 30.7084 22.6955C30.8132 22.6837 31.0163 22.6828 31.1154 22.7015C31.5169 22.7775 32.0343 22.7673 32.5733 22.7523C32.7248 22.7482 32.9891 22.7345 32.9139 22.7697C32.8744 22.7695 32.8336 22.7697 32.7928 22.7701C32.193 22.8166 31.5221 22.7946 30.8895 22.8071C30.2686 22.8195 29.6428 22.8272 29.0167 22.834C29.0562 22.8195 29.0966 22.8051 29.135 22.7903H29.129C29.2336 22.7884 29.3382 22.7868 29.4429 22.7855C29.157 22.7482 28.4909 22.8101 28.5296 22.7043C28.119 22.7043 27.7084 22.7047 27.2977 22.7053L27.4681 22.745L27.4617 22.7714C27.4533 22.7978 27.4625 22.823 27.7096 22.8365C27.7245 22.837 27.7388 22.8389 27.7512 22.842H27.7428C27.6988 22.8438 27.6492 22.8445 27.6052 22.8452C27.4657 22.8464 27.3341 22.8518 27.2062 22.8583C27.1793 22.8517 27.1592 22.8419 27.149 22.8306C27.1294 22.8114 26.9087 22.8126 26.7507 22.8061C26.7879 22.7771 26.9295 22.7479 26.7695 22.7181C26.544 22.7172 26.3129 22.7154 26.0874 22.7145C25.2017 22.719 24.3217 22.7234 23.436 22.7287C23.0786 22.6898 22.7815 22.7252 22.4676 22.7436L22.4616 22.7428C22.4344 22.7443 22.4068 22.7459 22.374 22.7467C22.2917 22.7548 22.2805 22.7662 22.3241 22.7775C22.4568 22.8116 23.4572 22.8531 23.7103 22.8355C23.9638 22.7766 24.3761 22.7889 24.6512 22.8132C25.2065 22.8612 25.7843 22.8623 26.3841 22.861C26.4013 22.8605 26.4177 22.8598 26.4333 22.8592C26.4725 22.8614 26.512 22.8632 26.5516 22.8644C25.9459 22.8733 25.3449 22.8614 24.7443 22.8538C24.6072 22.8521 24.4916 22.8575 24.4145 22.8761C23.9854 22.9171 23.5012 22.8992 23.0394 22.9038C22.7587 22.8755 22.5056 22.886 22.2581 22.9133L21.6579 22.9153C21.0314 22.873 20.4588 22.9091 19.8866 22.942C19.867 22.9485 19.8686 22.9539 19.8826 22.9582C19.8706 22.9582 19.8594 22.9582 19.8486 22.9577C19.903 22.9408 19.7806 22.9263 19.6671 22.9113C19.7223 22.8919 19.8874 22.8961 19.9646 22.8823C19.9998 22.8761 20.0178 22.8691 20.0234 22.8615C20.0681 22.8695 20.1193 22.8765 20.2009 22.8783C20.5859 22.8761 20.8774 22.8486 21.1197 22.8061C21.1361 22.798 21.1309 22.7914 21.0925 22.7849L21.0865 22.7858C21.0857 22.7768 21.0821 22.7678 21.0758 22.7591C20.6191 22.763 20.1677 22.7661 19.7111 22.7699C19.5072 22.7972 19.5739 22.8082 19.6831 22.8166C19.464 22.8066 19.2333 22.8012 19.0233 22.7867C18.2644 22.7775 17.5275 22.8043 16.7794 22.8113C16.5651 22.7959 16.35 22.783 16.1025 22.7885C15.9405 22.8029 15.8274 22.8226 15.7642 22.8467C15.7614 22.8446 15.7574 22.8427 15.7562 22.8408C15.7342 22.8094 15.5195 22.8341 15.404 22.8269C15.0081 22.8332 14.6119 22.8017 14.2156 22.8264C14.3752 22.8531 14.5843 22.8703 14.727 22.9035C14.8866 22.9398 15.2936 22.9245 15.6015 22.9127C15.7274 22.9076 15.7778 22.8984 15.793 22.8876C16.3203 22.9519 16.8866 22.9578 17.4228 22.9045C17.6591 22.8813 18.2037 22.905 18.4844 22.9527L18.4984 22.9551C17.997 22.953 17.5047 22.9654 17.0121 22.9761C16.7415 22.9759 16.4709 22.9726 16.2008 22.9662C16.1185 22.9693 16.0469 22.9758 16.0137 22.9887C15.8158 23.0065 15.5959 22.9806 15.3976 22.9949C15.1449 23.0062 14.8586 22.9899 14.6219 23.0139C14.6143 23.0145 14.6063 23.0148 14.5983 23.0152L14.6163 23.0141C14.3196 23.0081 14.0389 23.0129 13.7754 22.9733C13.5743 22.9429 13.4643 22.9948 13.2832 23.0075L13.2512 23.0093L13.232 23.0101C12.3184 23.0118 11.4167 23.0314 10.5135 23.047C10.236 23.0455 9.95848 23.0441 9.68179 23.044C9.64118 23.044 9.60058 23.0431 9.56022 23.0415C9.44467 23.037 9.33751 23.027 9.23115 23.0197C9.13759 23.0132 9.03843 23.0172 8.93967 23.0181C8.37309 23.0323 7.77852 22.9973 7.21714 23.0366C6.63417 23.0476 6.05638 23.0247 5.4734 23.0342C5.27388 23.0372 5.0004 23.0302 5 23.0787L5.0004 23.0816H5.0112C5.2695 23.0876 5.52858 23.0932 5.78688 23.0981C5.96281 23.1411 6.28749 23.1387 6.53499 23.1365C7.14036 23.1303 7.73414 23.1475 8.33391 23.1461C8.76294 23.1844 9.25235 23.1636 9.70897 23.1775C9.78734 23.1798 9.8653 23.1826 9.94087 23.1855C9.69977 23.1829 9.44308 23.1898 9.20277 23.2241C9.18653 23.2278 9.17249 23.2327 9.16157 23.2385C9.02962 23.2379 8.8341 23.2238 8.81211 23.2546C8.79012 23.2869 8.99365 23.3023 9.17518 23.2961C9.19979 23.2951 9.22445 23.2943 9.24915 23.2937C9.26154 23.2974 9.27434 23.3012 9.28513 23.3049C9.14759 23.3323 8.97124 23.3186 8.80651 23.3145C8.581 23.3086 8.36069 23.3037 8.15677 23.3238C8.06321 23.3836 8.12998 23.3965 8.55861 23.4039C8.86449 23.4091 9.20516 23.3994 9.45467 23.4335C9.22476 23.4454 9.19716 23.4738 9.37229 23.519C9.47585 23.4964 9.6186 23.4775 9.68418 23.4523C9.8048 23.4538 9.92496 23.4586 10.0436 23.4667C10.0444 23.5287 9.74495 23.5847 9.79533 23.6469C9.94368 23.6591 9.97686 23.6404 10.0484 23.6324C10.1364 23.622 10.2304 23.6204 10.3071 23.6324C10.3511 23.6382 10.3895 23.6487 10.3895 23.6567C10.3895 23.6769 10.2635 23.6745 10.1756 23.6776C10.1148 23.6801 10.0484 23.68 9.98246 23.6807C9.8837 23.6807 9.76774 23.684 9.74575 23.7C9.71257 23.7227 9.87251 23.7221 9.95488 23.731C10.1804 23.7569 10.5159 23.779 10.2024 23.8337C10.0756 23.8619 10.1856 23.8822 10.3231 23.8983C10.4383 23.9114 10.543 23.9235 10.587 23.9446C10.7518 23.9721 10.7074 24.0124 10.8725 24.04C10.9582 24.0523 11.0366 24.0706 11.1032 24.0941C11.1748 24.1177 11.2076 24.15 11.4443 24.1445C11.6586 24.1389 11.7526 24.1089 11.8021 24.0822C11.9565 24.0001 12.2424 23.9807 12.7594 24.0237C13.0009 24.044 13.2656 24.0548 13.5403 24.0628C13.4139 24.0766 13.2764 24.0725 13.1388 24.0692C12.9025 24.0634 12.6714 24.0692 12.6766 24.1103C12.6818 24.1418 12.5835 24.195 13.0233 24.1919C13.0669 24.1896 13.1052 24.1872 13.1492 24.1856C13.4075 24.1752 13.6662 24.1706 13.9301 24.1811C14.2492 24.1789 14.5579 24.1716 14.8822 24.1839C14.9513 24.1864 15.0185 24.1869 15.0821 24.186C15.0241 24.189 14.9669 24.1946 14.9149 24.2008C14.871 24.2057 14.8274 24.2195 14.8438 24.2235C14.9205 24.2445 15.0693 24.2365 15.19 24.2374C15.4155 24.2383 15.6415 24.2376 15.8618 24.2377C15.6802 24.2207 15.4875 24.2196 15.3444 24.1962C15.2912 24.187 15.2324 24.1835 15.1724 24.1835C15.4431 24.1721 15.6227 24.1295 15.5651 24.0808C15.5211 24.0452 15.5483 24.0154 15.7186 23.9889C15.7395 23.9842 15.7607 23.9797 15.7822 23.9754C15.883 23.9813 15.9601 23.9907 15.9225 24.0188C15.895 24.0381 16.0813 24.0351 16.186 24.0375C15.7574 24.0928 15.7762 24.1458 16.2468 24.2112C16.452 24.2394 16.4939 24.272 16.3728 24.309C16.6643 24.3075 16.9174 24.3213 17.1705 24.3384C17.346 24.3498 17.5391 24.3581 17.737 24.3484C17.8746 24.3421 17.9514 24.3267 17.957 24.3056C17.9622 24.2878 17.913 24.2726 17.803 24.2637C17.6823 24.253 17.5831 24.261 17.5115 24.2755C17.4016 24.2981 17.2584 24.2989 17.1317 24.2826C16.9889 24.2649 17.1161 24.2463 17.1877 24.2325C17.3136 24.2076 17.3032 24.1786 17.3528 24.1519H17.3576C17.6603 24.1074 17.969 24.0811 18.326 24.1426C18.5295 24.1774 18.7167 24.1089 18.9254 24.1389L18.931 24.1392C18.8378 24.1681 18.7778 24.1842 19.0137 24.2173C19.2225 24.2465 19.492 24.2878 19.5303 24.3403C19.376 24.4218 19.4416 24.4421 19.931 24.4771C20.1509 24.4925 20.2945 24.4852 20.4156 24.4578C20.52 24.4563 20.6247 24.4546 20.7403 24.4531C20.6795 24.4249 20.5368 24.4304 20.4212 24.4264L20.4196 24.4257C20.8418 24.3901 21.7371 24.4314 21.8954 24.4956C21.9338 24.5101 22.0054 24.5119 22.0822 24.5119C22.1645 24.5119 22.2969 24.5072 22.2805 24.4974C22.1929 24.4466 22.5284 24.4322 22.6495 24.399L22.6547 24.3999C22.9682 24.3781 23.2381 24.3548 23.2933 24.2936C23.3209 24.2684 23.4252 24.2337 23.6619 24.2152C23.8243 24.2029 23.8619 24.1859 23.8099 24.169C23.9562 24.1607 24.0886 24.1602 24.1953 24.197C24.2577 24.2188 24.4328 24.2211 24.5896 24.2251C24.6088 24.2327 24.6488 24.2392 24.6955 24.2454C24.4488 24.2748 24.1118 24.2603 23.8267 24.2712C23.9258 24.3035 24.157 24.3019 24.3385 24.3126L24.3477 24.312L24.3441 24.3124C24.7171 24.3224 25.123 24.3596 25.3981 24.2862C25.9283 24.2712 25.9559 24.3313 26.0046 24.3811C26.0266 24.4085 26.005 24.4288 26.2413 24.4387C26.4173 24.4452 26.4553 24.4726 26.4445 24.4977C26.4257 24.5634 26.6296 24.5896 27.055 24.5763C27.099 24.5674 27.1818 24.5585 27.1874 24.5488C27.2262 24.4535 27.2649 24.4472 27.9359 24.432L27.9415 24.4306C28.2166 24.3975 28.4145 24.3619 28.035 24.3173L28.0143 24.3175C28.0214 24.3172 28.0282 24.3178 28.035 24.3173C27.5512 24.2711 27.5456 24.2662 27.9199 24.2066C28.1566 24.1688 27.8703 24.1728 27.7659 24.163C27.6724 24.1541 27.5408 24.1476 27.59 24.1267C27.6284 24.1113 27.7552 24.1153 27.8431 24.1129L27.8575 24.1109L27.8487 24.1138C28.0266 24.1138 28.205 24.1165 28.3685 24.1058L28.4373 24.1003L28.5364 24.0994L28.5289 24.1063C28.5069 24.1383 28.6984 24.1509 28.8219 24.17L28.8247 24.1703L28.8167 24.1707C28.7064 24.1762 28.5141 24.1618 28.5029 24.186C28.4917 24.2109 28.6844 24.2201 28.8271 24.2297L28.8331 24.2285C28.9975 24.2285 29.1618 24.229 29.3149 24.2419L29.3117 24.242C29.2514 24.246 29.1082 24.2493 29.2566 24.2607C29.4105 24.2729 29.5864 24.2776 29.7572 24.2841C30.1202 24.2981 30.0043 24.32 29.8116 24.3441H29.8064C29.5808 24.3505 29.1794 24.3212 29.3169 24.4012C29.3441 24.4174 29.1846 24.444 29.069 24.4593C28.9371 24.4771 28.7772 24.4744 28.6564 24.4485C28.5852 24.4331 29.0023 24.4141 28.6452 24.4067C28.4033 24.4009 28.211 24.4209 28.145 24.4589C28.1938 24.6478 28.2654 24.6424 29.5197 24.6381C29.8 24.6373 30.3609 24.6044 30.0527 24.7077C30.0035 24.7255 30.1242 24.7375 30.229 24.7466C30.3825 24.7594 30.4541 24.7806 30.4869 24.8049L30.4865 24.8067L30.4817 24.8057C30.3605 24.8195 30.2338 24.8331 30.0743 24.8507C30.3929 24.8736 30.6956 24.8607 30.9819 24.8641L30.9335 24.8595C30.9517 24.8604 30.9697 24.8616 30.9875 24.8632C31.0207 24.8721 31.0535 24.8819 31.0863 24.8908C31.2894 24.9111 31.367 24.8909 31.4165 24.8668C31.4437 24.8513 31.3945 24.8343 31.4717 24.8198C31.8512 24.8281 31.9231 24.7709 32.1594 24.7491C32.3574 24.7476 32.5005 24.7354 32.5501 24.7049C32.7264 24.667 33.1059 24.6922 33.2766 24.6542C33.4551 24.622 33.6216 24.5813 33.772 24.5333C33.6896 24.4832 33.5301 24.4492 33.1287 24.4426C33.0611 24.4414 32.9991 24.4411 32.9423 24.4417C32.9934 24.4402 33.0446 24.4393 33.0959 24.4392C33.4541 24.4386 33.3946 24.3962 33.335 24.36C33.4813 24.3502 33.5305 24.3318 33.5469 24.3093C33.5581 24.2964 33.5693 24.2852 33.4705 24.2803C33.3662 24.2761 33.2558 24.2794 33.2502 24.2972C33.2446 24.3253 33.2002 24.3464 32.9807 24.3406C32.7772 24.3357 32.6944 24.3114 32.6616 24.2847C32.6233 24.2557 32.5793 24.2281 32.365 24.2159L32.3134 24.2023C32.0831 24.1374 32.245 24.1165 32.9379 24.1152C32.9395 24.1157 32.9407 24.1163 32.9427 24.1168C33.1295 24.1338 33.0531 24.0676 33.2234 24.0943C33.4157 24.1251 33.724 24.1189 33.8836 24.1463C33.9711 24.1617 33.8392 24.1866 33.6745 24.1922C33.4653 24.1995 33.2502 24.2035 32.9039 24.2122C33.1071 24.2162 33.1679 24.218 33.2282 24.2188C33.2294 24.2234 33.2307 24.228 33.2322 24.2325C33.2402 24.2474 33.267 24.2625 33.3494 24.2558C33.8224 24.2198 34.257 24.2798 34.7081 24.2607C35.0203 24.2288 35.2874 24.1916 35.3738 24.1368L35.413 24.1356C35.4681 24.1301 35.5445 24.118 35.5169 24.1149C35.2862 24.0839 35.2974 24.0241 34.9348 24.0104C34.8412 24.0046 34.6817 24.0126 34.6653 23.9899C34.6541 23.9746 34.7752 23.9683 34.8688 23.9659C34.9277 23.9648 34.9865 23.9625 35.0447 23.9589C35.0323 23.9634 35.0199 23.9678 35.0063 23.9723C35.1599 24.0071 35.1987 24.0588 35.5885 24.0597C35.5873 24.0597 35.5869 24.0594 35.5857 24.0593L35.5945 24.0599L35.7964 24.0796C35.6529 24.1326 35.3354 24.1721 35.2362 24.2302C35.1703 24.2712 35.1699 24.3086 35.2854 24.3458L35.3018 24.3481C35.4446 24.3991 35.736 24.379 35.7912 24.3532C35.9676 24.2684 36.3254 24.2517 36.9852 24.2892C36.7764 24.2502 36.6277 24.2525 36.507 24.2477C36.3418 24.2419 36.1767 24.2337 36.1551 24.2054C36.1387 24.1787 36.2986 24.1749 36.425 24.1765C36.5953 24.1783 36.8596 24.1598 36.876 24.2059C36.8872 24.2373 36.9804 24.2414 37.1511 24.2399C37.3326 24.2385 37.6073 24.2207 37.6349 24.2595C37.6513 24.2893 37.6009 24.3321 37.3314 24.3499C37.2603 24.3547 37.1779 24.3579 37.1559 24.3741C37.2491 24.404 37.5793 24.3839 37.6449 24.4211C37.7109 24.4349 37.7389 24.4503 37.7277 24.4679C37.7165 24.4817 37.6069 24.5042 37.8212 24.5035C37.9532 24.5035 38.0188 24.4866 38.0188 24.4689C38.0188 24.4408 37.9976 24.4123 37.9812 24.3842C37.9648 24.3493 38.0144 24.317 38.2179 24.2952C38.4322 24.2727 38.6305 24.2883 38.7897 24.3086C39.0316 24.3385 39.4606 24.3209 39.5926 24.3775L39.5994 24.3782C39.3974 24.375 39.1891 24.3717 38.8996 24.3676C39.0811 24.3991 39.2567 24.4169 39.2679 24.4507C39.2791 24.4807 39.4326 24.493 39.6141 24.4873C39.7737 24.4826 39.9556 24.4713 39.9172 24.4414C39.89 24.4196 40.0216 24.3994 39.9064 24.3791C39.9044 24.3791 39.9028 24.3787 39.9008 24.3785H39.8828L39.8896 24.3776C39.8185 24.308 40.1431 24.2646 40.3798 24.2161C40.4834 24.1953 40.6038 24.177 40.5894 24.1491C40.5947 24.1491 40.6 24.1492 40.6054 24.1494C40.7597 24.0871 40.2431 24.0505 40.3203 23.9917C40.4282 23.9893 40.5362 23.9858 40.6118 23.9715C40.7877 23.9394 40.942 23.9345 41.0576 23.9798C41.1571 24.0194 41.3875 24.0173 41.6018 24.0198C41.6218 24.0201 41.6418 24.0207 41.6621 24.0213C41.6018 24.035 41.541 24.048 41.4806 24.0615L41.459 24.0763C41.4418 24.0905 41.439 24.1051 41.4722 24.1192C41.0688 24.1392 41.2379 24.1918 41.2435 24.2272C41.2487 24.2514 41.2211 24.2708 41.1771 24.2918L41.1823 24.2926C41.0124 24.3046 41.1228 24.3192 41.1663 24.3329C41.2267 24.3523 41.2431 24.3685 41.0784 24.3781C41.0452 24.3732 41.0008 24.3708 40.9512 24.3701C40.5166 24.4151 40.2907 24.5297 40.4886 24.6017C40.6477 24.6172 40.6761 24.6421 40.7253 24.6671C40.8517 24.7261 41.1044 24.7402 41.4622 24.712C41.6438 24.7122 41.8637 24.7387 41.9904 24.7042C42.1 24.6735 41.8089 24.6637 41.7593 24.6394C41.8585 24.6063 42.0068 24.592 42.2543 24.6097C42.507 24.6551 42.6893 24.6438 42.7885 24.593C42.8213 24.5768 42.8105 24.5599 42.9424 24.5527C43.2723 24.5399 43.1236 24.5116 43.036 24.4864C43.0276 24.485 43.0184 24.4838 43.0096 24.4826C43.1844 24.4384 42.9808 24.3865 43.086 24.3394C43.1184 24.3241 42.9157 24.3013 42.7509 24.294C42.5819 24.2864 42.4157 24.2717 42.2555 24.2502C42.1128 24.2445 41.9696 24.2404 41.8321 24.2331C41.6234 24.2225 41.4422 24.2094 41.6897 24.1741C41.8909 24.1455 41.8013 24.1292 41.5818 24.1193C41.6016 24.1166 41.6211 24.1135 41.6402 24.1101C41.8161 24.0811 42.0102 24.0706 42.2011 24.0797C42.4155 24.0911 42.2563 24.1267 42.3383 24.1485L42.3407 24.1486C42.1336 24.1992 42.4219 24.1921 42.597 24.1906C42.8941 24.1884 43.2955 24.1288 43.3835 24.2282C43.3955 24.2394 43.5926 24.233 43.7026 24.2297C43.8125 24.2268 43.9609 24.2179 44.0212 24.234C44.208 24.2826 44.3679 24.2835 44.6598 24.2465C44.8081 24.2272 44.9896 24.2579 45.0336 24.2846C45.1212 24.3372 45.3635 24.3696 45.611 24.4061C45.8637 24.4433 46.056 24.4175 46.2707 24.4095C46.3807 24.4057 46.4527 24.3886 46.3703 24.3765C46.2164 24.3529 46.3043 24.2989 45.9357 24.3037C45.727 24.3059 45.6554 24.2849 45.6002 24.2607C45.529 24.2299 45.6118 24.2097 45.7933 24.1953C45.9421 24.1832 46.0732 24.1695 45.9965 24.1396C45.9959 24.1393 45.9952 24.139 45.9945 24.1387L46.3707 24.122H46.4459C46.7806 24.1263 46.5846 24.1962 46.8621 24.2082C46.8633 24.2085 46.8641 24.2091 46.8657 24.2094C46.9581 24.215 47.0505 24.2198 47.1428 24.2254L47.1408 24.2275L47.1448 24.2256L47.1468 24.2257C47.2129 24.2415 47.2766 24.2574 47.3387 24.2752C47.4595 24.3108 47.4539 24.3873 47.8829 24.3035C47.9769 24.285 48.2136 24.2788 48.3839 24.2909C48.5651 24.3047 48.4939 24.3265 48.4059 24.3458C48.3507 24.3579 48.3671 24.3685 48.4387 24.3765C48.631 24.3977 48.5923 24.4291 48.4879 24.4469C48.1852 24.4968 48.3719 24.5245 48.6414 24.5568C48.9437 24.5926 48.9217 24.6241 48.5203 24.6409C48.3883 24.6529 48.4103 24.6625 48.5423 24.6699C48.6962 24.6779 48.8558 24.683 49.0041 24.6935C49.5211 24.7285 49.5323 24.7471 49.0757 24.7962C49.0149 24.8027 48.8993 24.8066 48.9429 24.8211C48.9705 24.83 49.0641 24.8381 49.13 24.8398C49.3168 24.8439 49.6147 24.8561 49.6698 24.8303C49.7522 24.7932 49.9225 24.7544 49.7906 24.7083C49.6259 24.6486 49.296 24.6047 49.1256 24.545C49.0101 24.5036 48.9941 24.4738 49.214 24.4433L49.2728 24.4384C49.631 24.4237 49.9893 24.438 50.3524 24.4393C50.3653 24.4403 50.3782 24.4412 50.3912 24.4423C50.677 24.4681 50.4187 24.4937 50.358 24.5131C50.1157 24.5865 50.0997 24.585 50.677 24.5884C50.7738 24.6026 50.8902 24.6077 51.0117 24.6086C50.9181 24.6275 50.8558 24.6518 50.6822 24.6572C50.5943 24.6773 50.4787 24.6991 50.6543 24.7194C50.7754 24.7331 50.8858 24.7187 50.9957 24.7065C51.3148 24.6713 51.6667 24.6647 52.0405 24.6843L52.0461 24.6836C52.0517 24.6311 51.6283 24.6349 51.5183 24.5969L51.5259 24.5957C51.6506 24.594 51.775 24.601 51.8926 24.6164C51.9258 24.6213 51.9585 24.6269 51.9969 24.6311C52.1781 24.6512 52.3712 24.6708 52.6019 24.6515C52.8494 24.6306 52.7782 24.5967 52.7234 24.5644C52.4432 24.4601 52.432 24.4592 51.6675 24.4734C51.5187 24.4764 51.3648 24.4796 51.354 24.4417C51.6123 24.4434 51.8214 24.471 52.0909 24.4639C52.3164 24.4575 52.5535 24.4624 52.6471 24.4221C52.7386 24.3811 52.5803 24.3593 52.3824 24.3409C52.8438 24.3161 53.2181 24.3345 53.5047 24.3957C53.5403 24.4036 53.5703 24.4123 53.6055 24.4202C53.5675 24.4298 53.5299 24.4394 53.4827 24.4483C53.0757 24.521 53.0645 24.5645 53.4328 24.6431C53.4548 24.689 53.779 24.6754 53.933 24.6965C54.1201 24.7224 54.4556 24.7412 53.9386 24.7661C53.889 24.7685 53.8558 24.7796 53.8174 24.7869C53.911 24.7869 54.0041 24.7879 54.1033 24.7888L54.1085 24.7903C54.3892 24.7864 54.4444 24.8648 54.8074 24.8318C55.1541 24.8141 55.3356 24.7399 55.0773 24.6978C54.8026 24.6533 54.8354 24.5911 54.5607 24.5457C54.4584 24.529 54.504 24.505 54.5827 24.4824C54.6379 24.5017 54.7259 24.518 54.869 24.5299C54.8927 24.5301 54.9165 24.5302 54.9402 24.5302C55.0861 24.5875 55.1921 24.5829 56.063 24.5101C55.412 24.5208 55.5679 24.4274 55.2193 24.4049C55.2153 24.4012 55.2105 24.3975 55.2049 24.3941C55.1673 24.3856 55.1286 24.3779 55.0889 24.3708C55.2872 24.3708 55.4868 24.3711 55.6835 24.3719L55.6899 24.3713C55.8634 24.3876 56.0154 24.3719 56.1785 24.3671C56.3356 24.363 56.4848 24.3625 56.422 24.3876C56.3944 24.3891 56.3664 24.391 56.3384 24.3931C56.3182 24.3964 56.3002 24.4014 56.2859 24.4077C56.2716 24.414 56.2612 24.4214 56.2557 24.4294C56.2357 24.4386 56.2197 24.4479 56.2101 24.4571C56.1881 24.4626 56.1841 24.4682 56.2013 24.4737C56.2009 24.48 56.204 24.4863 56.2103 24.4922C56.2167 24.498 56.2263 24.5033 56.2385 24.5078C56.2385 24.5522 56.0901 24.5844 55.8538 24.61C55.43 24.6567 55.3744 24.7206 55.6823 24.7894C55.8362 24.7992 56.0066 24.8122 55.9954 24.8373C55.9626 24.8872 56.1937 24.8736 56.3696 24.8761C56.5895 24.8819 56.6335 24.8601 56.6667 24.8358C56.5735 24.7938 56.6011 24.7486 56.5516 24.7049C56.5136 24.6686 56.6783 24.701 56.7499 24.6994C56.8982 24.7132 57.0302 24.7141 57.1457 24.6916L57.1513 24.6907C57.3273 24.6932 57.5088 24.6948 57.6847 24.6973C57.8443 24.6999 58.0258 24.708 58.0482 24.6701C58.059 24.6508 58.1525 24.6499 58.2517 24.6468C58.6859 24.6315 58.7907 24.6025 58.5764 24.5442C58.4388 24.5079 58.4068 24.486 58.7203 24.4691C58.9402 24.4572 59.0386 24.4386 58.7751 24.4086C58.6491 24.3932 58.8631 24.3917 58.9402 24.3765C58.6931 24.3699 58.446 24.376 58.2373 24.3584C58.38 24.276 58.5024 24.2714 59.067 24.3344C59.0782 24.2973 59.1661 24.2691 59.4136 24.2595C59.6556 24.2548 59.8979 24.2477 60.1398 24.2453C60.3085 24.2438 60.5044 24.2391 60.5936 24.2711L60.5852 24.2721C60.0022 24.2815 60.013 24.3696 59.7051 24.4156C59.8011 24.422 59.8555 24.4304 59.8867 24.4397C59.8931 24.4498 59.8971 24.4599 59.8859 24.4689C59.8527 24.4915 59.8363 24.5158 59.8583 24.5392C59.9462 24.5991 59.9846 24.6628 60.4133 24.6962C60.4516 24.7018 60.496 24.7051 60.5456 24.7076C60.7875 24.7061 61.035 24.7431 61.2661 24.7037L61.2717 24.7046C61.4697 24.6861 61.5964 24.653 61.8495 24.6459L61.8511 24.6449L61.8547 24.6468C62.1022 24.6468 62.2509 24.6243 62.3229 24.5945C62.3777 24.5711 62.1966 24.5653 62.103 24.5531C61.9159 24.5297 61.7727 24.5425 61.5964 24.561C61.3985 24.5819 61.101 24.614 60.9143 24.5874C60.7219 24.5591 60.7551 24.5041 60.8483 24.4654C60.9586 24.4194 61.2505 24.4414 61.4816 24.4446L61.476 24.4437C61.6727 24.4438 61.8686 24.435 62.0594 24.4174C62.0654 24.41 62.0966 24.4057 62.137 24.4025C62.1178 24.407 62.0934 24.412 62.0642 24.4174C62.1854 24.411 62.3065 24.4037 62.4277 24.3988C62.5924 24.3925 62.6592 24.3416 62.8955 24.3741C63.0818 24.3999 63.2402 24.4314 63.1378 24.4749C62.8243 24.4931 62.8911 24.5131 63.143 24.5293C63.3517 24.5431 63.3845 24.5586 63.3237 24.5909C63.2302 24.6401 63.3129 24.6822 63.7308 24.6904L63.7324 24.6901L63.736 24.692L63.7252 24.6911C64.2146 24.7534 64.2142 24.7715 63.664 24.8196C63.4937 24.834 63.4445 24.8454 63.604 24.8673C63.8179 24.8973 63.8899 24.9563 64.3409 24.937C64.5772 24.9266 64.6868 24.917 64.5548 24.8782C64.3793 24.8256 64.4021 24.7715 64.6112 24.7215C64.7764 24.6812 65.0403 24.6636 65.3205 24.6846C65.634 24.7083 65.4197 24.7468 65.3481 24.7792C65.3294 24.7863 65.3089 24.7927 65.287 24.7984C65.1054 24.842 65.2062 24.8684 65.5876 24.8774L65.5892 24.8779C65.6992 24.8811 65.8148 24.8837 65.9135 24.8893C66.0731 24.8982 66.2658 24.9274 66.2166 24.8676C66.2058 24.8555 66.3653 24.8371 66.4697 24.8275C66.8076 24.7953 66.5813 24.7882 66.3913 24.778L66.3925 24.7772C65.9691 24.7464 65.8815 24.6695 65.4745 24.6338C65.2934 24.6175 65.5081 24.5869 65.596 24.566C65.6896 24.5442 65.7884 24.5176 65.6124 24.5038C65.277 24.4771 64.9419 24.443 64.5237 24.4475C64.5249 24.4482 64.5253 24.4489 64.5265 24.4494L64.5125 24.4476C64.4881 24.4498 64.4637 24.4517 64.4393 24.4535C64.4615 24.4511 64.4841 24.4491 64.5069 24.4476C64.3109 24.4475 64.1202 24.4467 63.9247 24.4458C63.9568 24.4366 63.9877 24.4269 64.0175 24.4166C64.4137 24.4095 64.8483 24.4403 65.195 24.3896L65.1874 24.3879L65.195 24.3882V24.3896C65.4865 24.3769 65.624 24.3422 65.8224 24.3124C66.2678 24.2456 66.4613 24.131 67.2914 24.1272C67.4457 24.1273 67.7372 24.1137 67.4625 24.0723H67.4613C67.3997 24.0465 67.5261 24.0329 67.842 24.0314C67.8268 24.0299 67.8112 24.0287 67.7956 24.0274C67.8132 24.0285 67.8307 24.0298 67.848 24.0314C67.874 24.0314 67.9051 24.0322 67.9315 24.0329L67.9243 24.0338C68.4965 24.0713 68.7384 24.1392 68.7876 24.2274C68.804 24.2523 68.9195 24.2669 69.0679 24.2718C69.4473 24.2841 69.4309 24.3222 69.2934 24.3576C69.0987 24.4092 69.0411 24.4747 68.6309 24.505L68.6409 24.5051L68.6273 24.506H68.6213L68.6309 24.505L68.6221 24.5053L68.6161 24.506L68.0219 24.5057C68.3518 24.5576 68.1646 24.5914 67.9775 24.6261C67.8999 24.6404 67.6261 24.6484 67.8512 24.6793C67.8756 24.6829 67.9013 24.6851 67.9275 24.6858C68.0375 24.6987 68.3298 24.6925 68.2142 24.7279C68.1315 24.7537 67.9227 24.7383 67.774 24.7279C67.6532 24.7205 67.5481 24.7059 67.4217 24.7034C67.2346 24.6993 67.0535 24.7113 67.2018 24.7428C67.3338 24.771 67.273 24.7881 67.1794 24.8131C66.9483 24.8752 67.135 24.9229 67.6081 24.924C67.8392 24.924 68.0867 24.9299 68.3178 24.9114C68.2078 24.8758 68.0095 24.8837 67.8392 24.8804C67.7072 24.8771 67.4929 24.885 67.5481 24.8503C67.5865 24.8261 67.7188 24.8076 67.9111 24.815C68.0539 24.8199 68.1862 24.8304 68.3178 24.8387L68.3274 24.8379L68.3346 24.8387L68.3794 24.8402C68.6181 24.8553 68.9048 24.8558 69.0331 24.9019C69.1099 24.9286 69.2858 24.9182 69.385 24.8989C69.4973 24.8767 69.6373 24.8693 69.7908 24.8678C69.8612 24.8682 69.9312 24.869 70.0015 24.8693C70.0727 24.8831 70.1447 24.896 70.2102 24.9099C70.4635 24.9318 70.727 24.9319 70.9803 24.9102C71.1347 24.8982 71.2994 24.9054 71.4534 24.9047C71.7472 24.9023 71.846 24.894 71.8248 24.8614C71.9748 24.8607 72.1251 24.8577 72.275 24.8564C72.2822 24.8786 72.367 24.8974 72.5481 24.9117L74.0116 24.9106L74.0192 24.9097L76.5494 24.8822C76.5594 24.8832 76.5706 24.8839 76.5806 24.8851L76.5754 24.8828C77.3567 24.859 78.1484 24.9068 78.9297 24.874C78.9516 24.8716 78.9736 24.87 78.99 24.8676C78.9952 24.8647 78.9992 24.8617 79.0036 24.8588L79.0232 24.8573L79.0312 24.8561C79.03 24.8567 79.0296 24.8576 79.0288 24.858C79.0344 24.857 79.0388 24.8556 79.044 24.8546C79.1032 24.8478 79.1592 24.8398 79.15 24.8282C79.3443 24.7618 79.1756 24.6806 78.7161 24.6421L78.7105 24.6413C78.5014 24.625 78.3587 24.6049 78.5458 24.5693L78.5514 24.5702C78.7753 24.5305 78.966 24.5106 79.1236 24.5106C79.5726 24.5494 80.0444 24.5779 80.581 24.5685C80.592 24.571 80.6027 24.5737 80.613 24.5765C80.6026 24.5745 80.5926 24.5721 80.581 24.5702C80.5698 24.6047 80.4863 24.6364 80.3951 24.668L80.3879 24.6687C80.1844 24.6847 79.8053 24.6508 79.7501 24.7056C79.6846 24.7704 79.9221 24.8195 80.2795 24.8558L80.2887 24.8577C80.9433 24.858 81.5978 24.8583 82.2524 24.8577C82.7254 24.8241 83.254 24.8607 83.727 24.8318L83.7322 24.8309C84.0857 24.831 84.4391 24.8296 84.7926 24.829L84.8054 24.8306L85.0965 24.8309C85.1001 24.8304 85.1045 24.8303 85.1085 24.83C85.6642 24.8272 86.2204 24.8416 86.7658 24.8171L86.7686 24.8177C87.0217 24.8162 87.2588 24.8051 87.4184 24.7769C87.6663 24.7325 87.8806 24.719 88.1113 24.7796C88.1393 24.787 88.2544 24.787 88.326 24.791L88.336 24.7892C89.2892 24.8008 90.2269 24.7717 91.1693 24.7599C91.9266 24.7587 92.6843 24.7649 93.4224 24.7374L93.4396 24.7366L93.5244 24.7337L93.5096 24.7331L93.53 24.7319C93.9922 24.7304 94.4656 24.7467 94.9166 24.7203C95.0131 24.7127 95.1115 24.709 95.2101 24.7093C95.1086 24.712 95.0086 24.716 94.911 24.7221C95.3293 24.7117 95.8019 24.7442 96.1706 24.691L96.1518 24.6917L96.1706 24.6899V24.691C96.4676 24.6886 96.7651 24.7083 97.0678 24.6948H97.0618L97.0514 24.6927L97.073 24.693C98.4045 24.6735 99.7468 24.6708 101.083 24.6618L101.093 24.6616C101.086 24.6622 101.079 24.6627 101.072 24.6634C101.49 24.6716 101.876 24.6452 102.261 24.6341C102.872 24.616 103.503 24.6533 104.089 24.6118C104.099 24.6114 104.11 24.6112 104.12 24.6106V24.6081C104.167 24.6029 104.214 24.5987 104.262 24.5955C104.78 24.5619 105.379 24.59 105.898 24.5582L105.986 24.5533C106.725 24.5478 107.464 24.5325 108.201 24.5058C108.269 24.5054 108.337 24.503 108.405 24.4986L108.45 24.4971L108.431 24.4968L108.439 24.4962C108.599 24.4982 108.76 24.494 108.918 24.4835C109.33 24.4885 109.688 24.4515 110.09 24.4516L110.094 24.4504L110.095 24.4518C110.623 24.4301 111.157 24.4077 111.685 24.3861L111.69 24.3851C112.472 24.3459 113.189 24.2884 113.825 24.2102C114.112 24.1912 114.404 24.1846 114.695 24.1903C115.118 24.1977 115.328 24.1365 115.591 24.0962C116.074 24.0295 116.031 23.9431 115.949 23.8581C115.922 23.8282 115.824 23.8006 115.845 23.7676C115.867 23.7296 115.653 23.7239 115.444 23.7197C115.191 23.7156 115.163 23.7009 115.29 23.6671C115.647 23.5671 115.676 23.4589 115.555 23.3489C115.478 23.2777 115.451 23.2058 115.391 23.1347C115.259 22.9739 115.122 22.8123 114.98 22.6515C114.974 22.6426 114.93 22.6337 114.903 22.6257C114.905 22.6254 114.907 22.6251 114.908 22.6248C114.744 22.5746 114.606 22.526 114.854 22.472C114.908 22.4606 114.915 22.435 114.86 22.4245C114.508 22.3492 114.436 22.2561 114.118 22.1793C114.015 22.1546 113.891 22.1246 113.631 22.1471L113.617 22.147L113.622 22.1482L113.617 22.1485H113.618L113.581 22.1492L113.535 22.1501C113.496 22.1025 113.222 22.1176 113.034 22.1119C112.572 22.0981 112.088 22.13 111.637 22.0951L110.009 22.0606C109.998 22.0626 109.989 22.065 109.979 22.0676H109.978L109.981 22.067C109.981 22.0646 109.992 22.0621 109.992 22.0588L110.014 22.0598ZM35.465 24.7863C35.245 24.7685 35.1019 24.7725 34.97 24.7829C34.8212 24.795 34.6017 24.8012 34.8708 24.8353C35.0079 24.8531 35.0415 24.8863 35.1403 24.9106C35.2008 24.9242 35.2683 24.9328 35.3384 24.9361C35.4085 24.9393 35.4797 24.9371 35.5473 24.9294C35.6957 24.9126 35.5529 24.8924 35.4701 24.8817C35.2338 24.851 35.1679 24.8201 35.4706 24.7863H35.465ZM38.6393 24.8533C38.469 24.8355 38.4742 24.7756 38.1223 24.8021C37.9848 24.8125 37.7589 24.8149 37.7645 24.8432C37.7697 24.8713 37.9848 24.865 38.1167 24.8675C38.2927 24.8708 38.375 24.8831 38.3694 24.9096C38.3694 24.9241 38.3858 24.9386 38.5398 24.9379L38.5346 24.9372C38.5618 24.9339 38.6117 24.9306 38.6389 24.925C38.7381 24.9008 38.7877 24.8687 38.6393 24.8533ZM41.7693 24.8118C41.6206 24.8076 41.423 24.7738 41.3735 24.8269C41.2427 24.8404 41.2355 24.8571 41.2959 24.8748C41.066 24.8703 40.9308 24.8997 40.7893 24.9268C40.7237 24.9244 40.6633 24.922 40.5974 24.9204C40.493 24.9186 40.3331 24.9081 40.3275 24.9332C40.3279 24.9549 40.487 24.9524 40.597 24.9535C40.8225 24.9551 41.054 24.9545 41.2795 24.9554L41.5686 24.9266L41.571 24.9272C41.8953 24.9111 42.0112 24.8724 42.0612 24.8273H42.0556C41.962 24.8223 41.8625 24.8167 41.7693 24.8118ZM17.1249 24.577C16.9985 24.5779 16.9162 24.5899 16.905 24.6077C16.8938 24.6278 17.0097 24.6263 17.1029 24.6272C17.2296 24.6258 17.3228 24.6189 17.2956 24.5973C17.2788 24.5851 17.2129 24.5771 17.1249 24.577ZM19.9642 24.5355C19.9209 24.5242 19.8694 24.5179 19.8164 24.5176C19.7634 24.5173 19.7114 24.5229 19.6671 24.5337C19.5787 24.5548 19.6227 24.5684 19.7767 24.5782C20.0022 24.592 20.2385 24.6068 19.903 24.6437C19.9194 24.6437 19.9358 24.6446 19.9526 24.6455C20.1889 24.6544 20.4364 24.6658 20.6235 24.6327C20.8163 24.598 20.5248 24.5736 20.492 24.5438C20.316 24.5429 20.1181 24.572 19.9642 24.5355ZM48.2832 24.7202C48.1128 24.7217 48.0633 24.7402 47.9917 24.7603C47.799 24.8128 47.5455 24.8588 47.166 24.886H47.16C46.9069 24.9167 46.9841 24.9523 47.1764 24.9764C47.4403 25.0098 47.4847 24.9533 47.6498 24.9438C47.7158 24.9389 47.7762 24.9349 47.8421 24.93C48.1172 24.93 48.3867 24.9303 48.4911 24.9877C48.6838 24.9481 48.8817 24.9223 48.4415 24.8988C48.0681 24.8783 48.0465 24.8282 48.3599 24.7888C48.4535 24.7768 48.607 24.7704 48.5471 24.7461C48.5087 24.7292 48.4095 24.7194 48.2832 24.7202ZM39.9712 24.6802C39.6357 24.6799 39.8221 24.7334 39.7401 24.7608C39.6629 24.7857 39.3822 24.8026 39.6073 24.839L39.7889 24.8488C40.0144 24.8628 40.2511 24.9081 40.4766 24.8807C40.6581 24.8589 40.3395 24.8168 40.4054 24.7814C40.4106 24.7772 40.405 24.77 40.3774 24.7683C40.1635 24.7455 40.2899 24.6804 39.9712 24.6802ZM34.0187 24.7357C34.1619 24.6671 33.8812 24.6612 33.5345 24.6659C33.5073 24.6683 33.4961 24.6707 33.5013 24.6732C33.5069 24.6763 33.5125 24.6781 33.5233 24.6781C33.4629 24.6877 33.4022 24.6973 33.3418 24.7062C33.3746 24.7144 33.4249 24.7217 33.4357 24.7298C33.4517 24.7443 33.3422 24.7636 33.4901 24.7734C33.6225 24.7823 33.738 24.7734 33.8372 24.759C33.8971 24.7506 33.9576 24.7428 34.0187 24.7357ZM50.8734 24.9878C50.5983 24.9481 50.29 24.9385 49.8666 24.9656C50.1796 24.999 50.5155 24.9797 50.7738 25H50.7794C50.8126 24.996 50.8402 24.9918 50.8734 24.9878ZM24.1222 24.6453C24.124 24.6451 24.1259 24.6444 24.1278 24.6441L24.1222 24.6438V24.6453ZM39.1243 24.523C38.9704 24.5214 38.8057 24.5205 38.8716 24.5561C38.9536 24.6006 38.8157 24.6246 38.5302 24.6333C38.2659 24.6413 38.0787 24.6315 38.0404 24.5863C38.0292 24.5743 37.9912 24.5622 37.8868 24.5629C37.7933 24.5629 37.7489 24.5749 37.7325 24.5871C37.6881 24.6178 37.5338 24.6354 37.369 24.6523L37.3582 24.6515C36.896 24.6763 36.5273 24.6673 36.379 24.5881C36.3462 24.5711 36.2686 24.5605 36.1755 24.5742C35.834 24.6249 35.3558 24.6465 35.0035 24.6932C35.2234 24.7458 35.4821 24.746 35.8068 24.7105C36.0103 24.688 36.2686 24.6704 36.5217 24.6898C36.6809 24.7021 36.6757 24.7286 36.5821 24.752C36.2467 24.8011 36.6969 24.791 36.7796 24.8088C36.8091 24.8089 36.8385 24.8097 36.8676 24.8113C37.0655 24.8001 37.0331 24.7757 37.0439 24.7514C37.0551 24.7224 37.1219 24.6941 37.3582 24.6862C37.5945 24.6782 37.8092 24.6809 37.952 24.7165C38.0447 24.7406 38.1524 24.7556 38.2651 24.76C38.4026 24.7674 38.5346 24.7691 38.4962 24.736C38.4086 24.6585 38.7389 24.6425 39.1623 24.6378C39.3107 24.6363 39.5858 24.655 39.5694 24.6121C39.553 24.5733 39.4982 24.5273 39.1243 24.523ZM30.79 24.6514C30.9362 24.6743 31.0918 24.6879 31.2502 24.6916C31.1486 24.6914 31.0503 24.6929 30.9683 24.704C30.9287 24.6855 30.8244 24.6699 30.79 24.6514ZM31.6584 24.6803C31.5809 24.6907 31.4869 24.6923 31.3889 24.6922C31.4795 24.6909 31.5696 24.6869 31.6584 24.6803ZM52.3488 24.7139C51.793 24.7176 51.0497 24.7909 50.9229 24.857C50.8734 24.8829 50.7578 24.916 51.0493 24.9281C51.2584 24.9364 51.4511 24.9372 51.5503 24.8954C51.6495 24.8525 51.7926 24.8106 52.1553 24.802L52.1501 24.8011C52.3868 24.7448 52.827 24.7723 53.2177 24.7531C52.9266 24.715 52.6183 24.7237 52.3488 24.7139ZM44.5266 24.3856C44.3895 24.3808 44.2136 24.3726 44.2239 24.4097C44.2459 24.4436 44.07 24.4581 43.9269 24.4767C43.8113 24.4921 43.4978 24.4838 43.663 24.5322C43.8057 24.5736 43.7561 24.6357 44.1684 24.6464C44.4711 24.6547 44.8453 24.6523 44.9885 24.6056C45.1092 24.566 44.7793 24.5562 44.6526 24.5385C44.8121 24.537 45.016 24.533 45.2308 24.5386C45.577 24.5485 45.8409 24.5632 45.6538 24.6269C45.6414 24.6314 45.647 24.6354 45.6618 24.6388C45.5047 24.6351 45.4947 24.661 45.4007 24.6695C45.7694 24.6827 46.0992 24.6982 45.8901 24.7725C45.8625 24.7814 45.9557 24.7983 45.9941 24.8112C46.0437 24.8121 46.0936 24.8137 46.1376 24.8137C46.3575 24.8162 46.4947 24.8914 46.759 24.8334C46.9517 24.7923 46.7482 24.7002 46.4679 24.6759C46.3139 24.6628 46.1496 24.6512 45.9957 24.6391H45.9945C45.9926 24.6395 45.9908 24.6398 45.9889 24.6401C46.0277 24.5883 46.0832 24.5374 46.3695 24.4938C46.0232 24.4712 45.693 24.487 45.3627 24.4927C45.0492 24.4973 44.697 24.5053 44.8013 24.427C44.8397 24.3988 44.6642 24.3914 44.5266 24.3856ZM23.1382 24.444C23.0722 24.4633 23.0778 24.482 23.1382 24.5014C23.6056 24.517 23.7383 24.458 23.9035 24.4184C24.013 24.3928 23.7655 24.3917 23.6336 24.3877V24.3865C23.4684 24.4058 23.3033 24.4246 23.1382 24.444ZM43.5302 24.6542C43.3655 24.6542 43.1396 24.6258 43.0568 24.6572C42.9908 24.6824 43.0572 24.7179 43.1176 24.7461C43.1616 24.7686 43.3155 24.7664 43.4419 24.7568C43.5686 24.7471 43.6954 24.7366 43.8221 24.7271L43.8217 24.7261C43.8877 24.7117 43.9537 24.6972 44.0196 24.6836C43.9701 24.6327 43.6514 24.6793 43.5302 24.6542ZM62.2561 24.6779C62.135 24.6876 62.0634 24.7012 62.0522 24.723C62.041 24.7489 61.9751 24.7691 61.7551 24.7651C61.6232 24.7553 61.4964 24.7448 61.3645 24.735C61.1446 24.7196 61.1118 24.7372 61.1554 24.7632C61.183 24.7784 61.2597 24.7906 61.3205 24.8044C61.4852 24.835 61.5896 24.8666 61.3201 24.898C61.2541 24.9028 61.193 24.9077 61.1218 24.9126C61.0846 24.9149 61.047 24.9164 61.0094 24.9177C60.9403 24.9086 60.8939 24.896 60.8855 24.8783C60.8579 24.838 60.6712 24.8324 60.5336 24.859C60.1702 24.9299 59.6747 24.9369 59.1465 24.9351C59.0094 24.9351 58.8886 24.9406 58.8335 24.9615C59.2457 24.9616 59.6524 24.9618 60.0642 24.9612L60.0602 24.9638C60.1206 24.9767 60.1981 24.9742 60.2805 24.9686C60.6708 24.9624 61.0614 25.0006 61.4521 24.9668L61.4628 24.9637C62.0626 24.9348 62.684 24.96 63.3441 24.9458C63.1322 24.9271 62.9273 24.8988 62.734 24.8616C62.646 24.8438 62.6188 24.8315 62.7124 24.8115C62.9763 24.7534 62.74 24.6855 62.2561 24.6779ZM31.2306 24.2398C31.2346 24.254 31.3066 24.2656 31.4017 24.2764C31.5337 24.2909 31.682 24.308 31.5833 24.3354C31.4897 24.3604 31.2858 24.3725 31.115 24.3627C30.8623 24.3489 30.642 24.356 30.4001 24.3633C30.0535 24.3736 29.9323 24.4018 30.1574 24.4392C30.4137 24.4827 30.5461 24.5325 30.6424 24.5844C30.6238 24.5843 30.6051 24.5841 30.5865 24.5838C30.295 24.5771 30.0031 24.573 29.7504 24.5503C29.5193 24.53 29.2938 24.5293 29.0463 24.542C29.2554 24.5122 29.6572 24.5342 29.7948 24.485C29.9031 24.4464 30.0742 24.4092 29.9411 24.3659L29.9107 24.3573H30.0587C30.69 24.348 30.708 24.344 30.5005 24.2597L30.6332 24.2401C30.6928 24.2431 30.7527 24.2452 30.8128 24.2463C30.9659 24.2534 31.1146 24.2573 31.2306 24.2398ZM14.4247 24.3077C14.3368 24.3044 14.2432 24.2954 14.15 24.3075C14.1173 24.3253 14.1996 24.335 14.2764 24.3433C14.4195 24.3594 14.5791 24.373 14.7606 24.3596C14.8098 24.3562 14.8698 24.3443 14.865 24.3394C14.799 24.3071 14.5843 24.3133 14.4247 24.3077ZM59.1477 24.6944C59.0818 24.6895 59.0102 24.6926 58.9994 24.7048C58.933 24.8008 58.4432 24.7876 58.003 24.7891C57.9426 24.7891 57.8822 24.7922 57.7615 24.7955C57.9538 24.8296 58.1685 24.8174 58.3553 24.8183C58.6467 24.8184 58.9054 24.8178 58.9654 24.8761C59.015 24.9206 59.2905 24.9102 59.4828 24.9022C59.7411 24.8918 59.5276 24.8657 59.5436 24.8472C59.582 24.802 59.3957 24.738 59.8963 24.7197C59.8995 24.7193 59.9031 24.7191 59.9067 24.7188C59.6759 24.6954 59.3897 24.7114 59.1477 24.6944ZM34.7952 24.3879C34.5917 24.3917 34.383 24.4062 34.4649 24.4426C34.5309 24.4725 34.4318 24.4901 34.327 24.5152L34.333 24.5144C34.5913 24.521 34.8552 24.5195 34.9212 24.5663C34.9376 24.5801 35.0535 24.5874 35.1583 24.5801C35.2402 24.5745 35.2898 24.5594 35.2242 24.5512C34.9823 24.518 35.0755 24.4767 35.0811 24.438C35.0811 24.4098 35.0535 24.3822 34.7952 24.3879ZM32.72 24.4507C32.5845 24.4609 32.4873 24.4795 32.4077 24.5056C32.3634 24.5192 32.3134 24.5402 32.1706 24.537C32.0663 24.5345 32.0223 24.5182 32.0111 24.5036C31.9891 24.4778 32.1219 24.4698 32.2538 24.4682C32.4177 24.4669 32.5665 24.4583 32.72 24.4507ZM22.2157 23.9904C22.23 24.0026 22.2511 24.0136 22.2775 24.0226C22.304 24.0317 22.3352 24.0386 22.3692 24.043C22.1869 24.0937 22.4756 24.1427 22.4952 24.1925C22.5064 24.2223 22.512 24.2675 22.8143 24.2887C22.9682 24.2992 22.8747 24.3218 22.7647 24.3355C22.6543 24.3499 22.5444 24.3476 22.4948 24.3267C22.3852 24.278 22.1153 24.282 21.8566 24.2795C21.2989 24.2732 20.7023 24.244 20.2945 24.324C20.1793 24.2316 20.3464 24.1955 20.9942 24.161C21.0046 24.1607 21.015 24.1599 21.025 24.1595C21.0873 24.1765 21.2009 24.1918 21.1369 24.2177C21.0817 24.2419 21.3073 24.2397 21.4172 24.2397C21.5712 24.2397 21.8738 24.2429 21.8411 24.2244C21.7591 24.1759 22.0554 24.126 21.7755 24.0822H21.7695C21.6811 24.0659 22.0038 24.0196 21.6363 24.0244C21.6238 24.0213 21.61 24.0189 21.5955 24.0173L21.6603 24.0118C21.7223 24.0043 21.7879 23.9972 21.8502 23.9896L22.1945 23.9838C22.2013 23.9861 22.2081 23.9883 22.2157 23.9904ZM25.3873 24.0659C25.5296 24.0734 25.674 24.0796 25.8259 24.0821C25.8019 24.1122 25.8835 24.138 26.0546 24.1495C26.4065 24.1733 26.5496 24.2145 26.6376 24.2654C26.6704 24.2841 26.6752 24.3129 26.8535 24.3157C26.8119 24.3246 26.7759 24.3373 26.714 24.3575C26.6924 24.2727 26.3625 24.2315 26.0326 24.1893C25.9195 24.1744 25.8135 24.1587 25.672 24.1663C25.6555 24.1627 25.6381 24.1598 25.62 24.1575C25.4824 24.1486 25.2189 24.1507 25.4393 24.1113C25.4664 24.0926 25.4393 24.0784 25.3873 24.0659ZM12.1152 24.0489C11.9173 24.0529 11.8621 24.09 11.8673 24.1109C11.8673 24.1449 12.0713 24.1475 12.2636 24.1355H12.258C12.2912 24.1306 12.3243 24.1266 12.3571 24.1217C12.3515 24.1146 12.3463 24.1071 12.3351 24.1008C12.3024 24.0797 12.3515 24.0442 12.1152 24.0489ZM47.9373 24.4105C47.8713 24.396 47.767 24.4008 47.6734 24.4064C47.3983 24.4249 47.1944 24.4531 47.1064 24.4941C47.0952 24.5159 47.1504 24.5299 47.2768 24.5348C47.3867 24.5388 47.4967 24.5333 47.4971 24.517C47.5027 24.479 47.6954 24.4661 47.8601 24.4477C47.9373 24.4389 47.9977 24.4242 47.9373 24.4105ZM41.9668 24.4021C41.9648 24.4169 41.9748 24.4313 42.006 24.4454C41.8881 24.4454 41.7757 24.456 41.655 24.4595C41.663 24.4291 41.8397 24.4183 41.9668 24.4021ZM73.5346 24.2386C73.8452 24.1915 74.1607 24.1817 74.5458 24.1973C74.4614 24.1974 74.3762 24.1971 74.2887 24.1961C74.052 24.1936 73.8264 24.2065 73.7329 24.242C73.6005 24.2935 73.3418 24.3047 73.0008 24.3046C72.4346 24.3043 72.3246 24.3301 72.5497 24.4021C72.6265 24.4264 72.6209 24.4426 72.4726 24.4563C72.4466 24.4593 72.4222 24.4638 72.4002 24.4697C72.2898 24.4528 72.1475 24.4565 72.0047 24.4673C71.8654 24.4777 71.7233 24.482 71.5813 24.4801C71.2187 24.4743 71.0367 24.5033 70.9596 24.5509C70.888 24.5961 70.7388 24.6179 70.4034 24.6057C70.1451 24.5967 69.8868 24.6143 69.8592 24.6474C69.83 24.6858 69.7164 24.7163 69.5889 24.7458C69.5005 24.7028 69.4114 24.6601 69.1715 24.6275C69.0671 24.6135 69.1031 24.5934 69.1067 24.5742C69.4513 24.5696 69.7832 24.5856 70.1227 24.5942C70.3318 24.5991 70.5517 24.5976 70.6785 24.5645C70.7884 24.5355 70.7336 24.5097 70.6073 24.4845C70.4534 24.4546 70.4042 24.4197 70.4426 24.3722C70.6901 24.4255 71.0311 24.4298 71.3834 24.4267C71.84 24.4043 72.3294 24.3891 72.451 24.3043C72.4938 24.2757 72.7265 24.2696 72.8132 24.2465C73.0555 24.2896 73.3722 24.2631 73.5346 24.2386ZM71.6189 24.6886C71.5653 24.6945 71.5233 24.7013 71.5001 24.7088C71.4606 24.7123 71.4198 24.7157 71.3766 24.7182C71.283 24.7297 71.2103 24.7437 71.1431 24.7583C71.0929 24.7475 71.0527 24.7313 71.0279 24.7119C71.0896 24.7128 71.1514 24.7114 71.2123 24.7077C71.2338 24.7024 71.2561 24.6974 71.279 24.6929C71.389 24.7052 71.5065 24.6993 71.6189 24.6886ZM60.7655 24.5952C60.8159 24.6071 60.8883 24.6106 61.0218 24.6092C60.8999 24.6133 60.8015 24.6126 60.7655 24.5952ZM18.9938 23.9631C18.9786 23.9829 19.0274 23.9984 19.1441 24.009C19.0042 24.0114 18.8658 24.0139 18.8214 24.0421C18.8157 24.0457 18.8129 24.0498 18.8134 24.0539C18.6743 24.025 18.7343 23.9964 18.9938 23.9631ZM64.4749 24.5903C64.5225 24.5997 64.5432 24.61 64.4673 24.624C64.4017 24.6358 64.3405 24.6348 64.2798 24.6306C64.4365 24.6256 64.4933 24.6114 64.4749 24.5903ZM74.5178 24.7222C74.6196 24.7198 74.7218 24.7222 74.8221 24.7292C74.7481 24.7276 74.6737 24.7262 74.6001 24.7294C74.2811 24.7632 73.9476 24.7614 73.6109 24.7471C73.7401 24.7501 73.9084 24.7454 74.1603 24.735C74.2811 24.7325 74.397 24.727 74.5178 24.7222ZM72.7085 24.6017C72.9284 24.6017 73.0547 24.6213 73.1151 24.6511C73.1463 24.6657 73.1908 24.6756 73.2403 24.6788C73.2284 24.6832 73.218 24.688 73.2091 24.6932C73.311 24.7187 73.3946 24.7345 73.503 24.7421C73.475 24.7406 73.4458 24.7394 73.4174 24.7378C73.1259 24.7184 72.6861 24.7374 72.5873 24.668C72.5405 24.6622 72.4898 24.6587 72.4334 24.6564C72.4698 24.6321 72.447 24.6016 72.7085 24.6017ZM41.1875 24.2939C41.1843 24.2939 41.1803 24.2939 41.1771 24.2936L41.1823 24.2926C41.1842 24.2929 41.1856 24.2936 41.1875 24.2939ZM23.3269 24.0559C23.4388 24.0462 23.5504 24.0366 23.6951 24.0492C23.5576 24.0378 23.4364 24.0458 23.3213 24.0571L23.3269 24.0559ZM75.5538 24.2573C75.5922 24.2766 75.7297 24.2872 75.7737 24.3066C75.8157 24.3227 75.8537 24.339 75.892 24.3553C75.8261 24.3796 75.7097 24.3985 75.4374 24.4011C75.443 24.4203 75.5146 24.4203 75.5806 24.4212C76.2571 24.4313 76.3283 24.4538 75.954 24.5353C75.8992 24.5466 75.8061 24.5586 75.9104 24.5717C75.9984 24.582 76.0864 24.5725 76.1691 24.5644C76.2263 24.5585 76.2859 24.553 76.3443 24.5472C76.3962 24.5524 76.4562 24.5571 76.5098 24.562C76.6857 24.5647 76.8621 24.5576 77.038 24.5625C77.2743 24.5699 77.4282 24.5862 77.3619 24.6258C77.2991 24.6655 77.3691 24.7025 77.4458 24.7388C76.986 24.7424 76.5462 24.7088 76.08 24.7214C75.9316 24.7239 75.7829 24.7271 75.6333 24.7298C75.6305 24.7211 75.6629 24.7082 75.7505 24.6887C75.8329 24.6701 75.7613 24.6241 75.4538 24.624C75.1015 24.6238 74.8428 24.6157 75.074 24.5496C75.1511 24.5278 75.1015 24.5131 74.904 24.5146C74.7773 24.5153 74.6449 24.5106 74.5186 24.5081L74.5122 24.5069C74.4942 24.4666 74.4314 24.4242 74.7005 24.3942L74.7049 24.3926L74.7069 24.3923C75.0284 24.3446 74.8736 24.316 74.5358 24.2935C74.5321 24.2928 74.5285 24.2922 74.525 24.2915C74.5231 24.2918 74.5212 24.292 74.5194 24.2923C74.437 24.2641 74.525 24.252 74.7065 24.2505C74.866 24.249 75.0308 24.2505 75.1903 24.2499L75.1987 24.2493L75.1959 24.2497L75.561 24.25C75.559 24.2523 75.557 24.2548 75.5538 24.2573ZM67.1594 24.2188C67.4393 24.2454 67.4393 24.2649 67.137 24.2752C66.9743 24.2809 66.8596 24.2975 66.7616 24.3172C66.7344 24.3172 66.702 24.3179 66.6748 24.3187L66.6576 24.3198C66.2822 24.3253 66.1846 24.3747 66.1898 24.4114C66.195 24.4574 66.1186 24.5036 66.1734 24.5496L66.181 24.5472L66.155 24.5567C66.113 24.5763 66.1614 24.5903 66.311 24.5989C66.4271 24.6067 66.5469 24.6026 66.6572 24.5871C66.8939 24.5531 67.1414 24.521 67.3945 24.4872C67.281 24.4704 67.0759 24.4756 66.9827 24.4537L66.9655 24.4489L67.1658 24.4461C67.3645 24.4436 67.5585 24.4439 67.7524 24.467C67.9119 24.4857 68.2138 24.4891 68.1318 24.4341C68.0771 24.3985 68.3466 24.3945 68.3522 24.368C68.3798 24.2954 67.7752 24.2143 67.1594 24.2188ZM13.1988 23.7774C13.3488 23.779 13.4879 23.7917 13.6346 23.7975C13.6706 23.798 13.7062 23.7989 13.7418 23.7996C13.7854 23.8049 13.8338 23.8095 13.881 23.8143C13.8553 23.8181 13.8329 23.8243 13.8158 23.8324C13.8046 23.8581 13.8598 23.8792 14.0357 23.8897C14.2612 23.8922 14.4871 23.8713 14.7178 23.8942C14.7958 23.9008 14.8775 23.8984 14.9517 23.8873C14.9635 23.8892 14.9757 23.8907 14.9881 23.8918C14.8138 23.9274 14.5735 23.9128 14.338 23.9036C13.799 23.9035 13.4859 23.8555 13.2716 23.79C13.2501 23.7838 13.2253 23.7795 13.1988 23.7774ZM39.1835 24.1008C39.1651 24.1116 39.1663 24.1236 39.2079 24.1328C39.3287 24.1635 39.3398 24.1936 39.1255 24.2136C38.9164 24.2328 38.7017 24.2319 38.5258 24.2004C38.5034 24.1967 38.4794 24.1936 38.453 24.1909C38.7001 24.1894 38.8732 24.1719 38.9548 24.1319C38.9916 24.1123 39.0672 24.1008 39.1835 24.1008ZM37.4478 23.9609C37.4918 23.9641 37.5361 23.9672 37.5801 23.9689L37.7185 23.9819C37.8216 24.0096 38.0136 24.0246 38.1999 24.0405C38.2465 24.0484 38.2912 24.0578 38.3334 24.0686C38.3702 24.0747 38.4091 24.0788 38.449 24.0808C38.4714 24.0822 38.4942 24.0834 38.5166 24.0848C38.5198 24.0974 38.4426 24.1071 38.3554 24.1146C38.0731 24.1386 38.1219 24.1614 38.2991 24.186C38.0575 24.1872 37.9056 24.1647 37.7521 24.1424C37.8688 24.1335 37.8068 24.1138 37.7665 24.0966C37.7061 24.0716 37.5741 24.0536 37.4866 24.0319C37.4133 24.0213 37.3433 24.0079 37.2778 23.9918C37.2994 23.9792 37.339 23.9677 37.4126 23.9579L37.4478 23.9609ZM85.889 24.8146H85.8746L85.885 24.8138L85.889 24.8146ZM86.7646 24.8173L86.6255 24.8168C86.6642 24.8158 86.7029 24.8143 86.7414 24.8124L86.7646 24.8173ZM55.6883 24.3736L55.6891 24.3725L55.6835 24.3719L55.6883 24.3736ZM12.2688 23.7778C12.2744 23.7802 12.2768 23.7826 12.2756 23.7848C12.2756 23.7803 12.2636 23.7753 12.2448 23.7698L12.2688 23.7778ZM20.8486 23.7621C20.941 23.7643 21.0338 23.768 21.1261 23.7674C21.0522 23.7971 21.2373 23.831 21.0773 23.8616C21.0038 23.8279 21.0282 23.7863 20.8486 23.7621ZM14.7186 23.6999C14.7206 23.7126 14.731 23.725 14.7786 23.7366C14.865 23.7571 14.8266 23.7611 14.763 23.7621C14.7505 23.7585 14.7374 23.7551 14.7238 23.752C14.6686 23.7406 14.5863 23.7308 14.6191 23.7139C14.6359 23.7056 14.6482 23.6962 14.6554 23.6862C14.6755 23.6913 14.6966 23.696 14.7186 23.6999ZM85.3032 24.5056C85.5134 24.5003 85.7244 24.5027 85.9333 24.5128C86.0413 24.5232 86.1417 24.535 86.2192 24.5512C86.2793 24.5545 86.3398 24.5569 86.4004 24.5586C86.6535 24.5675 86.7858 24.5813 86.4779 24.6087C86.3596 24.6195 86.2744 24.6315 86.2856 24.6502C86.2471 24.6485 86.2082 24.6483 86.1696 24.6498C86.1283 24.6521 86.0896 24.6586 86.0577 24.6686C85.8634 24.6816 85.6646 24.6874 85.4579 24.6796C85.4383 24.6769 85.4175 24.6745 85.3951 24.6726L85.3991 24.672C85.6802 24.6309 85.7402 24.5897 85.3831 24.55C85.312 24.5419 85.3172 24.5297 85.306 24.5184C85.3071 24.5141 85.3061 24.5098 85.3032 24.5056ZM47.9569 24.1074C47.9761 24.1163 48.0081 24.1226 48.0581 24.1252C47.8809 24.1426 47.7042 24.1601 47.5075 24.1722C47.6662 24.1518 47.8525 24.1352 47.9569 24.1074ZM49.1388 24.1438C49.334 24.1753 49.4887 24.1813 49.6974 24.162C49.3656 24.2065 49.0217 24.2027 48.6786 24.1509C48.8321 24.1573 48.9873 24.1549 49.1388 24.1438ZM57.937 24.2816C57.8419 24.2881 57.7403 24.2923 57.6531 24.3009C57.7359 24.2905 57.8411 24.2875 57.937 24.2816ZM82.8513 24.5731C82.769 24.5783 82.6822 24.5826 82.6106 24.59C82.5099 24.6009 82.4051 24.6108 82.3787 24.6247C82.2088 24.6182 82.0205 24.6209 81.8653 24.6072C81.8694 24.6004 81.8663 24.5933 81.8565 24.5874C81.8677 24.5871 81.8789 24.5869 81.8897 24.5865L81.9529 24.5788C82.2418 24.5959 82.5368 24.5934 82.8233 24.5715L82.8513 24.5731ZM62.0158 24.0193C61.9902 24.0917 62.2917 24.1519 62.4057 24.2191C62.4273 24.2318 62.4701 24.2422 62.5244 24.2506C62.227 24.2414 61.9391 24.2623 61.514 24.3124C61.4565 24.3194 61.3805 24.3206 61.3065 24.3222C61.2677 24.3222 61.2285 24.3222 61.1898 24.3228H61.0414C60.8951 24.3243 60.7243 24.3181 60.5796 24.32C60.5628 24.3182 60.546 24.3161 60.53 24.3136C60.7171 24.2958 60.9095 24.3065 61.091 24.3018C61.2505 24.2978 61.5476 24.3115 61.3829 24.2582C61.3665 24.2534 61.3833 24.2438 61.4053 24.2397C61.504 24.2195 61.4433 24.1896 61.2677 24.1749C61.2301 24.1718 61.2081 24.1641 61.1818 24.1584L61.1902 24.1572L61.1966 24.1565L61.185 24.1587C61.4545 24.1387 61.7463 24.1242 61.7519 24.0654C61.7523 24.0425 61.8667 24.0268 62.0158 24.0193ZM51.1597 24.1564C51.1395 24.1598 51.123 24.1656 51.1125 24.1728C51.1109 24.174 51.1109 24.1752 51.1101 24.1762C51.0768 24.1751 51.0432 24.1761 51.0109 24.1793C50.9957 24.1675 50.9609 24.1601 50.9146 24.1553C50.9962 24.1562 51.0779 24.1565 51.1597 24.1564ZM9.23995 23.5765C8.80532 23.5795 8.44746 23.5481 8.15038 23.6004L8.43066 23.6029C8.63977 23.5733 8.93726 23.6136 9.23995 23.5765ZM88.228 24.6419C88.4 24.629 88.5999 24.6341 88.8486 24.6468C88.6323 24.669 88.4096 24.6364 88.228 24.6419ZM55.6615 24.1893C55.7387 24.1916 55.7611 24.2014 55.8158 24.2063L55.9158 24.211C55.9422 24.2156 55.9702 24.2187 55.999 24.2202C55.8642 24.2192 55.7367 24.2148 55.6615 24.1893ZM63.2689 24.2625C63.233 24.2785 63.1986 24.2945 63.1946 24.3114C63.0883 24.2971 62.9804 24.2844 62.8711 24.2736C63.0044 24.2753 63.1378 24.2716 63.2689 24.2625ZM11.3907 23.6114C11.5115 23.601 11.6122 23.6004 11.6886 23.6108C11.5678 23.6112 11.4471 23.6152 11.3267 23.6182C11.3479 23.6158 11.3687 23.6133 11.3907 23.6114ZM14.0365 23.498C14.1229 23.5141 14.1884 23.5336 14.2284 23.5574C14.166 23.5638 14.128 23.5708 14.2624 23.5851C14.4219 23.6019 14.5775 23.62 14.7326 23.638C14.7222 23.6395 14.711 23.641 14.7022 23.6428C14.675 23.6486 14.6554 23.6546 14.6446 23.6612C14.6059 23.6377 14.4755 23.6226 14.218 23.6176C14.0421 23.6142 14.0365 23.5906 14.0641 23.5728C14.1189 23.5422 14.1053 23.5175 14.0365 23.498ZM47.3835 23.9708C47.5155 23.9579 47.6198 23.9595 47.6858 23.9829C47.7083 23.9888 47.7321 23.994 47.757 23.9984L47.7646 24C47.7514 24.0167 47.9193 24.0218 48.0081 24.0335C48.0181 24.035 48.0273 24.0366 48.0365 24.0382C48.0398 24.0389 48.043 24.0397 48.0461 24.0406C47.9209 24.0465 47.7914 24.0406 47.673 24.0465L47.6466 24.0443C47.3699 24.0332 47.4139 23.9991 47.3803 23.9708H47.3835ZM50.4147 24.0153C50.362 24.0335 50.3504 24.0508 50.4203 24.0651C50.2604 24.0488 50.0661 24.0482 49.8534 24.0642C49.8462 24.0626 49.8389 24.0611 49.8314 24.0597L49.8578 24.0511C49.9505 24.0515 50.0431 24.048 50.1337 24.0406C50.2144 24.0292 50.3216 24.0236 50.4147 24.0153ZM37.487 23.8765C37.4918 23.8801 37.491 23.8828 37.4866 23.8848L37.4482 23.8798L37.4354 23.878L37.443 23.8782C37.4576 23.8776 37.4723 23.8769 37.487 23.8765ZM16.5311 23.5079C16.5667 23.5269 16.6419 23.541 16.7586 23.5503C16.6571 23.5614 16.5611 23.5728 16.4515 23.5571C16.3244 23.5392 16.1509 23.5273 16.0021 23.5121L16.0337 23.5134C16.2336 23.5198 16.4048 23.5215 16.5311 23.5079ZM63.2537 23.9947C63.4021 23.9714 63.5564 23.9875 63.6832 24.003C63.7827 24.0153 63.8819 24.0255 63.9979 24.0227C63.8727 24.0602 63.8595 24.1058 63.6832 24.1398C63.5952 24.111 63.4133 24.092 63.2865 24.0667C63.1714 24.0433 63.1054 24.019 63.2537 23.9947ZM88.7015 24.3074C88.9526 24.2871 89.2116 24.2842 89.4656 24.2988C89.0477 24.327 88.6135 24.3381 88.5419 24.4085C88.5355 24.4172 88.5815 24.4248 88.6043 24.4326L88.5095 24.4463C88.4871 24.4433 88.4632 24.4399 88.4416 24.4381C88.3976 24.4341 88.3484 24.4325 88.2992 24.4316L88.2284 24.4319C88.1829 24.4197 88.1573 24.4082 88.1649 24.3971C88.1862 24.394 88.2072 24.3906 88.228 24.3871C88.2811 24.3779 88.3325 24.3675 88.382 24.3559C88.3947 24.3547 88.4075 24.3536 88.4204 24.3526C88.5095 24.3456 88.5399 24.3348 88.5519 24.3232C88.6004 24.3163 88.6504 24.311 88.7015 24.3074ZM69.7484 23.9502C69.8548 23.949 69.9612 23.9533 70.0643 23.9631C70.0759 23.9641 70.0887 23.9649 70.1003 23.966C70.1923 23.9899 70.3486 23.9973 70.5357 23.9972C70.826 24.0135 71.1295 24.0212 71.4526 24.0185C71.5077 24.024 71.5617 24.0309 71.6141 24.0393C71.4881 24.0732 71.2438 24.0763 70.9831 24.0734C70.8236 24.0717 70.6581 24.0618 70.5865 24.0957C70.5533 24.1126 70.4106 24.1272 70.5201 24.1466C70.6409 24.1676 70.7952 24.1614 70.9108 24.1469C71.195 24.1124 71.4922 24.0951 71.7912 24.0954C71.9309 24.0938 72.0692 24.1059 72.1923 24.1304C72.2519 24.1418 72.2387 24.1494 72.2035 24.1556C72.1699 24.1558 72.1351 24.1562 72.0991 24.1571C71.4502 24.2156 70.7348 24.1823 70.0475 24.1909C69.7672 24.1949 69.8544 24.1682 69.904 24.1497C69.9975 24.1149 70.0695 24.0842 69.7232 24.0728L69.7064 24.0739C69.6852 24.0547 69.5709 24.0402 69.5577 24.021C69.5525 24.0032 69.6133 23.9887 69.6629 23.9733C69.686 23.9659 69.7188 23.958 69.7484 23.9502ZM79.4818 24.1424C79.6466 24.1393 79.7737 24.146 79.8337 24.1703C79.8721 24.1848 79.8609 24.1992 79.7785 24.2096C79.6518 24.2259 79.509 24.2241 79.3659 24.2143C79.2175 24.2038 79.102 24.1731 78.8985 24.1973C78.7885 24.2109 78.8265 24.2262 78.8761 24.2432C78.9696 24.2748 79.146 24.2813 79.3551 24.2823C79.5582 24.2823 79.7341 24.2727 79.9157 24.2607C80.0204 24.2543 80.1692 24.2471 80.2295 24.2632C80.2479 24.268 80.2543 24.2721 80.2527 24.2761C80.0748 24.3046 79.8525 24.3142 79.5586 24.3034C79.3055 24.3032 79.0468 24.3071 78.8597 24.269C78.7609 24.2488 78.5738 24.2487 78.4091 24.2551C78.3319 24.2583 78.2599 24.2648 78.1771 24.2654C77.8973 24.2687 77.7373 24.2402 77.5778 24.2136C77.5178 24.2039 77.507 24.191 77.5842 24.1821C77.7489 24.1636 77.9472 24.1604 78.14 24.1661C78.5466 24.1784 78.9536 24.2038 79.3607 24.1667C79.3881 24.1607 79.4121 24.1528 79.4315 24.1435C79.4479 24.1432 79.4646 24.1426 79.4818 24.1424ZM94.428 24.4552C94.6084 24.4523 94.8339 24.4211 94.9278 24.4734C94.9118 24.4793 94.9002 24.4852 94.8923 24.4912L94.6907 24.491C94.6473 24.4778 94.5969 24.4682 94.5428 24.4627C94.5048 24.4598 94.4668 24.4569 94.428 24.4552ZM57.0098 23.9575C57.0288 23.9661 57.0513 23.9736 57.0766 23.9797C57.0494 23.9736 57.0248 23.9661 57.0034 23.9575H57.0098ZM74.91 24.1931L74.8125 24.1947C74.8584 24.1931 74.9046 24.1922 74.9508 24.1921L74.91 24.1931ZM43.5058 23.7265C43.5666 23.7339 43.6206 23.7428 43.675 23.752C43.6842 23.7603 43.697 23.7681 43.7129 23.7748C43.5278 23.7775 43.3375 23.7716 43.1512 23.7734C43.2045 23.763 43.2606 23.7549 43.3187 23.7491C43.3987 23.7369 43.4595 23.7298 43.5058 23.7265ZM61.664 23.9601C61.8895 23.9151 61.9011 23.9561 61.9559 23.9772L61.9679 23.9834C61.8519 23.9899 61.7315 23.9923 61.6024 23.9872C61.6008 23.9841 61.5924 23.9828 61.5872 23.9828L61.5744 23.9818C61.604 23.9746 61.6308 23.9668 61.664 23.9601ZM67.9327 24.0327L67.9295 24.0323L67.9371 24.0322C67.9357 24.0324 67.9342 24.0326 67.9327 24.0327ZM67.2698 24.0167H67.2534L67.2678 24.0154L67.2698 24.0167ZM60.1202 23.8433C60.1322 23.8546 60.1359 23.8669 60.1308 23.879C60.1256 23.891 60.1119 23.9023 60.091 23.9117C59.9642 23.905 59.935 23.8885 59.8907 23.874C60.0098 23.8712 60.0742 23.859 60.1202 23.8433ZM80.8661 24.0723C80.9013 24.0759 80.9353 24.0809 80.9673 24.0874C81.1256 24.1229 81.1912 24.1574 80.8357 24.1767C80.7477 24.1507 80.7218 24.123 80.8297 24.0914C80.8505 24.0851 80.8625 24.0787 80.8661 24.0723ZM65.3038 23.8227C65.4105 23.8509 65.4913 23.8825 65.6452 23.905L65.5904 23.9047C65.3937 23.889 65.2854 23.8638 65.2966 23.8244L65.3038 23.8227ZM79.3863 23.9911C79.5934 24.0206 79.8765 24.0256 80.1404 24.0369C79.9457 24.0502 79.7261 24.0536 79.5166 24.0621C79.4287 24.0403 79.4147 24.0157 79.3863 23.9911ZM17.7958 23.0794C18.0929 23.0717 18.2924 23.0836 18.3504 23.1279C18.0777 23.1237 17.8038 23.1181 17.5311 23.118C16.9042 23.1178 16.2988 23.1531 15.6555 23.1455C15.4111 23.1423 15.1397 23.135 14.8998 23.1556L14.9141 23.1559L14.8906 23.1565L14.8998 23.1556H14.8958L13.4959 23.1691C13.5707 23.1239 13.2384 23.1002 13.1788 23.0624C13.336 23.1005 13.6043 23.1065 13.8681 23.1051C14.5943 23.0997 15.3256 23.092 16.0461 23.1143C16.1388 23.1163 16.2319 23.1128 16.3216 23.1039C16.5972 23.08 16.8821 23.0746 17.1629 23.0879C17.3716 23.0969 17.5867 23.0849 17.7958 23.0794ZM18.5707 23.234C18.5696 23.2335 18.5685 23.233 18.5675 23.2324H18.6371L18.5707 23.234ZM13.2352 23.0102L13.232 23.0101L13.2436 23.0098L13.2352 23.0102ZM20.0669 23.0584L19.9914 23.061C19.9786 23.0597 19.9642 23.0587 19.9518 23.057C19.9902 23.0545 20.0291 23.0529 20.0681 23.0524C20.0657 23.0542 20.0661 23.0562 20.0669 23.0584ZM22.895 23.0299C23.0646 23.0077 23.1937 23.0367 23.3405 23.0424C23.1715 23.0484 23.0013 23.0479 22.8327 23.0406C22.8542 23.0376 22.875 23.0341 22.895 23.0299ZM28.5552 23.0185L28.5357 23.0195L28.5444 23.0172C28.5484 23.0178 28.5524 23.0179 28.5552 23.0185ZM21.9774 22.8024C21.7351 22.8258 21.46 22.812 21.1961 22.8159C21.2345 22.8475 21.416 22.8426 21.5644 22.8467C21.7239 22.8436 21.8834 22.8412 22.043 22.8365C22.1145 22.8341 22.2305 22.8318 22.2141 22.8172C22.1921 22.7994 22.0654 22.8033 21.9774 22.8024ZM26.7148 22.8706C26.7723 22.8734 26.8227 22.8776 26.8575 22.8847C26.8528 22.8863 26.8486 22.8881 26.8451 22.8901C26.8371 22.8875 26.8299 22.885 26.8183 22.8821C26.7871 22.878 26.7515 22.8738 26.7148 22.8706ZM28.2386 22.8359L28.2134 22.8362L28.2002 22.8312C28.2127 22.833 28.2255 22.8346 28.2386 22.8359ZM28.1386 22.8092L28.1402 22.811L28.1334 22.8091L28.1386 22.8092ZM32.2206 22.6892C32.173 22.6856 32.1259 22.6825 32.0855 22.6776C32.1287 22.6821 32.1742 22.6858 32.2206 22.6892Z" fill="#0B1220"/>
</g>
<path d="M117.515 28.6432C117.208 29.3075 117.738 30.0544 118.467 29.9834V29.9834C118.746 29.9562 118.998 29.8069 119.157 29.5756L122.654 24.4638C122.654 24.4638 123.976 24.5296 125.925 24.4638C127.15 24.3907 128.312 23.9216 129.218 23.134V23.134C129.217 23.1355 129.214 23.1342 129.214 23.1318V23.0298C129.214 23.0147 129.207 23.0004 129.196 22.9905C128.297 22.2167 127.151 21.7547 125.941 21.6799L125.925 21.6791C123.977 21.6133 122.654 21.6791 122.654 21.6791L118.849 16.5222C118.699 16.3192 118.47 16.1892 118.219 16.1647V16.1647C117.504 16.0951 117.005 16.8568 117.355 17.4842L118.109 18.8375C118.201 19.004 118.265 19.1848 118.298 19.3725L118.69 21.6133C116.865 21.5221 115.037 21.7009 113.269 22.1434V22.1434C113.333 22.1299 113.369 22.0616 113.343 22.0015L112.743 20.5771C112.633 20.3151 112.376 20.1447 112.092 20.1447V20.1447C111.635 20.1447 111.298 20.5713 111.404 21.0156L111.641 22.0099C111.736 22.4063 111.536 22.809 111.187 23.0198V23.0198V23.0198C111.195 23.0157 111.192 23.0046 111.183 23.0046H111.086C111.061 23.0046 111.052 23.0372 111.073 23.0504V23.0504C111.089 23.0602 111.09 23.0836 111.074 23.0935V23.0935C111.053 23.1069 111.062 23.1398 111.087 23.1398H111.198C111.208 23.1398 111.219 23.1427 111.228 23.1482C111.384 23.2434 111.572 23.345 111.765 23.4377V23.4377C111.787 23.4474 111.8 23.4717 111.794 23.4954L111.404 25.1288C111.298 25.5731 111.635 25.9997 112.092 25.9997V25.9997C112.376 25.9997 112.633 25.8293 112.743 25.5673L112.923 25.1408C113.193 24.5006 113.889 24.1595 114.574 24.2796C115.581 24.4564 116.666 24.5535 117.774 24.5535C118.097 24.5535 118.417 24.5453 118.735 24.5289V24.5289C118.709 24.5302 118.688 24.5491 118.684 24.5745L118.29 26.8227C118.263 26.9777 118.216 27.1285 118.15 27.2714L117.515 28.6432Z" fill="#0B1220"/>
<defs>
<clipPath id="clip0_8014_161">
<path d="M5 22H108.5C109.328 22 110 22.6716 110 23.5V23.5C110 24.3284 109.328 25 108.5 25H5V22Z" fill="white"/>
</clipPath>
</defs>
</svg>
